<svg xmlns="http://www.w3.org/2000/svg" viewBox="0 0 443.79 103.24"><defs><style>.cls-1{fill:#231f20;}.cls-2{fill:#af2584;}.cls-3{fill:#fff;}.cls-4{fill:#faa21e;}.cls-5{fill:#1b77ba;}.cls-6{fill:#74246c;}</style></defs><title>Logo</title><g id="Layer_2" data-name="Layer 2"><g id="Layer_1-2" data-name="Layer 1"><path class="cls-1" d="M181.19,69V90.5H169.39v-20c0-3.58-1.32-5.3-3.82-5.3-3.24,0-4.9,2.23-4.9,6.54V90.5H149.19v-20c0-3.47-1.31-5.3-3.78-5.3-3.2,0-4.95,2.29-4.95,6.54V90.5H128.67V56.27H137l1.68,3.68a13.2,13.2,0,0,1,10-4.69,11.53,11.53,0,0,1,9.82,5,13.35,13.35,0,0,1,10.51-5C176.31,55.25,181.19,61,181.19,69Z"/><path class="cls-1" d="M222.6,56.27,208.25,89c-4.61,10.48-8.86,14.26-17.7,14.26h-4V93.11h3.24c4.51,0,5.87-1.17,7.47-5.44L183.08,56.27h12.81l7.27,18.86,6.77-18.86Z"/><path class="cls-1" d="M248.57,80.17V90.5h-8.11c-7.57,0-12.17-4.63-12.17-12.24V65.35H222V62.59l15.34-16.33h2.42v10h8.6v9.08h-8.3V76.24a3.63,3.63,0,0,0,4,3.93Z"/><path class="cls-1" d="M290.19,56.23V90.47h-9.12l-1-2.42a16.22,16.22,0,0,1-10.33,3.58c-10.47,0-18-7.64-18-18.28s7.48-18.15,18-18.15a16.24,16.24,0,0,1,10.46,3.68l1.21-2.65ZM279,73.38a7.67,7.67,0,1,0-7.66,7.81A7.52,7.52,0,0,0,279,73.38Z"/><path class="cls-1" d="M310.83,91.62c-9.33,0-15-4.93-15.11-12.35h11.35c0,2.5,1.74,3.66,4,3.66,1.73,0,3.36-.88,3.36-2.65,0-2-2.59-2.54-5.88-3.08-5.31-.86-12.35-2.46-12.35-10.77,0-6.86,5.85-11.29,14.62-11.29s14.37,4.64,14.5,11.58h-11c0-2.19-1.47-3.2-3.61-3.2-1.89,0-3.16.94-3.16,2.52,0,1.95,2.62,2.4,5.87,3,5.41,1,12.6,2.08,12.6,10.77,0,7.16-6,11.84-15.14,11.84Z"/><path class="cls-1" d="M352.36,90.5,343.78,76V90.5H332V43.9h11.79V69.68l8.16-13.41h13.24L354.51,72.58,366.26,90.5Z"/><path class="cls-1" d="M363,100.69h1.2c5.29,0,8.4-3.12,8.4-8.37V56.27h2V92.44c0,6.25-4,10.16-10.22,10.16H363Zm9.15-55.57h3v3.54h-3Z"/><path class="cls-1" d="M418.09,74h-32c.31,8.76,6.68,15.17,15.16,15.17a14.85,14.85,0,0,0,13.6-8.43H417c-3.23,6.77-8.75,10.43-15.75,10.43-9.76,0-17.17-7.67-17.17-17.83s7.4-17.74,17.17-17.74,16.83,7.67,16.83,17.55C418.13,73.42,418.11,73.73,418.09,74Zm-31.93-1.92h30c-.52-8.67-6.79-14.53-14.83-14.53C393,57.55,386.73,63.66,386.17,72.09Z"/><path class="cls-1" d="M443.79,88.59v1.93H439.3c-6.37,0-10.25-3.93-10.25-10.41v-22h-7.89V56.33H429V46.2h2V56.33H443.5v1.79H431.07V80c0,5.4,3.06,8.56,8.4,8.56Z"/><path class="cls-2" d="M139.95,2.83l-.18-.07-.07,0a43,43,0,0,0-5.41-1.55l-.17,0a53.14,53.14,0,0,0-7.5-1A61.33,61.33,0,0,0,111.84,1a51.69,51.69,0,0,0-9.57,2.91h0A59,59,0,0,0,80.37,20.08h0c-.92,1-2.22,2.59-3.69,4.52l-.64.87c-1,1.39-2,2.85-3,4.39L73,30c-.4.63-.8,1.27-1.2,1.93,0,0-31.29-6.06-45.5,17.16,0,0,11.27.58,17.49,4a11.7,11.7,0,0,0,.13,16.15l43-29.57a16.24,16.24,0,0,1,26.7-18.39L140.18,2.93Z"/><path class="cls-3" d="M100.81,15A16.23,16.23,0,1,0,117,31.22,16.24,16.24,0,0,0,100.81,15ZM109,27.47l-7.3,10.45a2.57,2.57,0,0,1-3.49.71L91.41,34.4A2.59,2.59,0,1,1,94.16,30l4.67,2.92,5.89-8.43a2.59,2.59,0,0,1,4.24,3Zm4.34-1.21c0,.16.11.3.15.46l-.37-.23Z"/><path class="cls-4" d="M36.73,66.39,10.35,84.57a1.72,1.72,0,1,1-2-2.84L35.87,62.79a1.75,1.75,0,0,1,.28-.16A16.3,16.3,0,0,0,36.73,66.39Z"/><path class="cls-4" d="M40.57,73.19,2.7,99.28a1.72,1.72,0,1,1-2-2.84l37.73-26A16.26,16.26,0,0,0,40.57,73.19Z"/><path class="cls-4" d="M48.14,77.71a1.77,1.77,0,0,1-.61.75L27.59,92.2a1.69,1.69,0,0,1-1,.3,1.73,1.73,0,0,1-1-3.15l19-13.06A15.91,15.91,0,0,0,48.14,77.71Z"/><path class="cls-5" d="M109,27.47l-7.3,10.45a2.57,2.57,0,0,1-3.49.71L91.41,34.4A2.59,2.59,0,1,1,94.16,30l4.67,2.92,5.89-8.43a2.59,2.59,0,0,1,4.24,3Z"/><path class="cls-6" d="M140.18,2.93c-9,52-51.39,53-51.39,53C82.68,91.26,57.35,90.74,57.35,90.74c4.45-8.5,3.38-15.37,1.45-19.9a11.72,11.72,0,0,1-14.86-1.66l43-29.57a16.24,16.24,0,1,0,26.7-18.39Z"/></g></g></svg>