<svg xmlns="http://www.w3.org/2000/svg" viewBox="0 0 319.78 181.24"><defs><style>.cls-1{font-size:63.4px;font-family:Mont-HeavyDEMO, Mont;}.cls-1,.cls-8{fill:#231f20;}.cls-2{letter-spacing:-0.02em;}.cls-3{letter-spacing:-0.01em;}.cls-4{letter-spacing:0em;}.cls-5,.cls-6,.cls-7{font-family:Mont-ExtraLightDEMO, Mont;}.cls-6{letter-spacing:-0.01em;}.cls-7{letter-spacing:0em;}</style></defs><title>Asset 17</title><g id="Layer_2" data-name="Layer 2"><g id="Layer_1-2" data-name="Layer 1"><text class="cls-1" transform="translate(0 160.88)"><tspan class="cls-2">m</tspan><tspan class="cls-3" x="58.14" y="0">y</tspan><tspan class="cls-4" x="96.81" y="0">t</tspan><tspan x="125.08" y="0">ask</tspan><tspan class="cls-5" x="240.66" y="0">j</tspan><tspan class="cls-6" x="255.94" y="0">e</tspan><tspan class="cls-7" x="295.5" y="0">t</tspan></text><path class="cls-8" d="M229.75,2.83l-.18-.07-.07,0a43,43,0,0,0-5.41-1.55l-.17,0a53.14,53.14,0,0,0-7.5-1A61.33,61.33,0,0,0,201.64,1a51.69,51.69,0,0,0-9.57,2.91h0a59,59,0,0,0-21.89,16.21h0c-.92,1-2.22,2.59-3.69,4.52l-.64.87c-1,1.39-2,2.85-3,4.39l-.06.08c-.4.63-.8,1.27-1.2,1.93,0,0-31.29-6.06-45.5,17.16,0,0,11.27.58,17.49,4a11.7,11.7,0,0,0,.13,16.15l43-29.57a16.24,16.24,0,0,1,26.7-18.39L230,2.93Z"/><path class="cls-8" d="M126.53,66.39,100.15,84.57a1.72,1.72,0,1,1-2-2.84l27.47-18.94a1.75,1.75,0,0,1,.28-.16A16.3,16.3,0,0,0,126.53,66.39Z"/><path class="cls-8" d="M130.37,73.19,92.51,99.28a1.72,1.72,0,1,1-2-2.84l37.73-26A16.26,16.26,0,0,0,130.37,73.19Z"/><path class="cls-8" d="M137.95,77.71a1.77,1.77,0,0,1-.61.75L117.39,92.2a1.69,1.69,0,0,1-1,.3,1.73,1.73,0,0,1-1-3.15l19-13.06A15.91,15.91,0,0,0,137.95,77.71Z"/><path class="cls-8" d="M198.76,27.47l-7.3,10.45a2.57,2.57,0,0,1-3.49.71l-6.76-4.23A2.59,2.59,0,1,1,184,30l4.67,2.92,5.89-8.43a2.59,2.59,0,0,1,4.24,3Z"/><path class="cls-8" d="M230,2.93c-9,52-51.39,53-51.39,53-6.11,35.29-31.44,34.77-31.44,34.77,4.45-8.5,3.38-15.37,1.45-19.9a11.72,11.72,0,0,1-14.86-1.66l43-29.57a16.24,16.24,0,1,0,26.7-18.39Z"/></g></g></svg>