<svg xmlns="http://www.w3.org/2000/svg" viewBox="0 0 499.36 161.51"><defs><style>.cls-1{fill:#e91e3c;}</style></defs><title>Asset 20</title><g id="Layer_2" data-name="Layer 2"><g id="Layer_1-2" data-name="Layer 1"><path class="cls-1" d="M404.36,144.91c-3.84,4-6.86,7.55-10.38,10.56-4.5,3.86-9.86,6.28-15.69,3.51-5.54-2.63-6.51-8.3-6.19-13.63.51-8.52,1.83-17,2.81-25.56-6.63-2.55-8.11-1.64-12,4.22a331.16,331.16,0,0,1-20.08,28.07c-2.89,3.53-7.79,6-12.26,7.51-7.85,2.67-13.87-1.65-15.12-10-1.45-9.67,1.14-18.72,5-27.34,6-13.31,13.38-25.84,25.2-34.91a41.76,41.76,0,0,1,12.91-6.57c8.11-2.5,14.32,2.07,14.12,10.57C372.6,97.93,371,104.43,370,111c5.52,2.54,8.33,1.4,10.68-4.86a300.65,300.65,0,0,1,39.59-72.47C428.64,22.29,438.38,12,450.94,5a37.66,37.66,0,0,1,9.72-4c6.19-1.43,9.49.46,10.52,5.26,1.32,6.13-1.32,10.84-7.35,12.54.05-1.21.16-2.3.14-3.38,0-2.33-.14-4.66-.21-7-2.24.94-5.16,1.28-6.62,2.92-7.8,8.75-16.44,17.08-22.52,27-10.54,17.13-19.43,35.28-29,53-.52,1-.68,2.14-1.52,4.95,2.53-1.72,4-2.36,5-3.47C419.66,81,430,68.95,440.56,57.16c2-2.26,5-3.65,7.56-5.44l1.65,1.82c-1.18,1.92-2.25,3.92-3.56,5.75-12.34,17.3-25.89,33.5-42.59,46.83-10.49,8.38-11,20.58-12.06,32.38-.34,3.75,2.69,4.73,5.56,2.4a34,34,0,0,0,6.75-7.28c7-10.41,13.27-21.32,20.71-31.37a111.7,111.7,0,0,1,17.34-18.13c5.24-4.47,11.78-6.14,18.64-2.55.91.47,2.54.77,3.21.28,5.81-4.24,11.87-1.35,18.82-1.67L453.19,140l1.85,1c11.35-2.95,12.23-17.7,22.83-21.58-6,15.9-14.28,29.85-29.46,38.19-7.94,4.36-11.5,2.65-16.08-7.24-1.43,1-2.82,2-4.1,3C415.27,163.92,408.45,161.82,404.36,144.91Zm20.88-7.15c.83,1.47,1.26,3.36,2.35,3.87s2.9-.17,4.17-.8a7,7,0,0,0,3-2.73c7.78-14.62,15.49-29.28,23-44,.52-1-.07-3.1-.87-4.11-.42-.53-2.8-.25-3.67.44C438,102.58,431.2,119.73,425.24,137.76Zm-80.6-30.63c-3.73,9.7-7.48,18.42-10.26,27.43-.68,2.2,1.21,6,3.1,7.83.87.84,5.57-.53,6.89-2.2,4.94-6.24,9.29-13,13.61-19.65.51-.78-.08-3.06-.91-3.78C353.69,113.83,350,111.24,344.64,107.13Zm18.68,3.49c1.26-5.38,2.85-10.16,3.3-15,.18-2-1.8-5.57-3.36-5.92-2.06-.46-5.36.91-6.92,2.61C350.35,98.75,353,106.65,363.32,110.62Z"/><path class="cls-1" d="M154.67,102.38c-4.14,3.47-6.84,6.33-10.09,8.31-6,3.65-11.94,7.61-18.46,9.93-10.32,3.67-19.83-2.94-20-13.91-.09-6.29,1.79-12.64,3.13-18.89.64-3,2.08-5.84,3.17-8.78-7.52-1.95-9.18-.77-13.11,5-7,10.31-14.65,20.2-22,30.25a9.67,9.67,0,0,1-1.73,1.59c-6.85,5.62-15.34,7.47-20.61,4.05-7-4.54-7.73-12-6.31-18.91,4.48-22,14.75-40.83,32.92-54.58a30,30,0,0,1,12.7-5.5c8-1.33,13.4,3.29,13.71,11.44.23,6-.77,12-1.27,18.57,7.31.23,12.49-3.88,17.34-8.82,5.34-5.44,10.21-11.61,16.39-15.87,4.51-3.12,10.7-4.4,16.32-5.14,4.65-.61,7.91,2.67,9.1,7.5,1.64,6.69-1.86,16.77-7.7,20.27-1.87,1.12-5.12,1.58-6.88.67-1.29-.66-2.27-4.68-1.46-6.12,2.44-4.32,5.82-8.1,9.35-12.77-1.2.09-3.43-.37-4.82.51a32.37,32.37,0,0,0-7.5,6.5,103.35,103.35,0,0,0-20.31,38.72,17.27,17.27,0,0,0-.74,4c-.2,6.76,4.85,10.55,10.15,6.69a127.15,127.15,0,0,0,21.63-19.42c6.46-7.52,10.9-16.74,16.92-24.7a107,107,0,0,1,15.19-16.25c6.15-5.33,13.4-8.21,21.65-4.06a3.9,3.9,0,0,0,2.21.5c6.14-1.07,12.26-2.23,18.38-3.37l1.36,1.92-29.13,59.79,1.52,1.27c1.63-1.06,3.67-1.8,4.81-3.24,4-5,7.83-10.23,11.43-15.57,2.58-3.83,2.37-4,8.5-3-8.09,15.41-16,30.42-32.1,38.6-9.13,4.65-12.37,3-15.95-7.41-1.65,1.23-3,2.43-4.54,3.35-3.16,1.91-6.23,4.19-9.66,5.38-7.12,2.47-12.52-1.09-13.44-8.54C154.38,109.51,154.67,106.62,154.67,102.38Zm54-51-1.62-1.17c-2.12,1.38-4.5,2.48-6.33,4.17-11.41,10.46-18,24-23.33,38.13-1.3,3.43-4,8.08.36,10.34,1.47.77,6.82-3.14,8.51-6,7.39-12.61,14.17-25.58,21-38.53C208.27,56.25,208.22,53.66,208.68,51.34ZM81.26,68.88c-5.77,9-10.88,18-11.89,28.56A8.06,8.06,0,0,0,72,103.78c1.12.79,4.89-.28,6-1.69,5.46-6.81,10.52-13.95,15.45-21.16.57-.83-.1-3.44-1-4.2C89.19,74.05,85.53,71.81,81.26,68.88ZM96,71.07l3-.92c1-4.63,2.42-9.22,2.79-13.9a7,7,0,0,0-3.27-5.57c-1.55-.71-5.07.15-6.06,1.52-2,2.8-4.59,6.83-3.88,9.57C89.49,65.28,93.4,68,96,71.07Z"/><path class="cls-1" d="M424.09,19.12c-4.28,5.42-8,10.46-12.15,15.06-.78.86-3.9.65-5.23-.19-7.11-4.51-13.89-9.54-21-14.09-8.06-5.16-16.75-8.36-26.59-7.81-3.6.2-5.17,1.26-5.21,5.18-.16,16-6.43,29.66-16.64,41.65a34.33,34.33,0,0,1-6.57,5.82c-4.17,2.9-8.89,5-13.61,1.68s-5.6-8.49-4.75-13.71c2-12,8.22-21.85,16.37-30.64,3.69-4,7.26-8.06,11.19-12.43a50.5,50.5,0,0,0-6.77,2.1c-13.75,6.41-23.53,17.5-32.79,28.92-18.18,22.43-32.44,47.11-39.81,75.26a60.84,60.84,0,0,0-1.7,19.15c.76,11.38,10.7,17.43,20.51,11.8,7.24-4.15,13.68-10.37,19.13-16.82A54.4,54.4,0,0,0,311.24,99.6c.28-3.06-1.79-6.33-2.78-9.51-3,1.4-7.19,2-8.65,4.35-3.35,5.37-5.24,11.63-8,17.42-1.15,2.45-2.48,5.1-4.46,6.81-5.31,4.59-11,8.72-17.55,13.79.32-4.09.27-7.67.93-11.12,2.69-14,8.35-26.48,19.74-35.7A26,26,0,0,1,296,82.22c12.5-5.72,22.65.32,21.31,13.91-2.68,27.32-15.79,48.93-40.67,61.27-21.68,10.75-40.61-2-41.08-26.38-.29-15.41,4.23-29.74,10.47-43.61C259,58.51,276.4,33,302.67,14.48,313.47,6.87,325.09.76,338.88.83c1.92,0,4.32,0,5.66,1,5.08,4,9.93,2.21,15.31.75C376.18-1.81,392-1.09,406.73,8.46,412.28,12.05,418,15.39,424.09,19.12Zm-76.37-2.71c-11.55,2.51-29.54,27.17-29.05,39.46.21,5.21,3.08,7,7.72,4.64A16.53,16.53,0,0,0,331.06,57c7.28-8.08,13-17.07,15.11-28C346.94,25,347.19,20.89,347.72,16.41Z"/><path class="cls-1" d="M220.26,161.51c-9.82-1.52-19.61-4-29.47-4.29-8.63-.29-17.32,1.9-26,2.75-1.82.18-4.55,0-5.5-1.15-11-13.23-25.61-15.72-41.09-12.81-18.42,3.47-36.42,9.14-54.84,12.62a119.77,119.77,0,0,1-31.43,1.67C13.8,158.85.72,141.42,0,120.41c-.74-23,8.09-42.87,19.69-61.75C33.81,35.77,51.27,16,76.45,4.93A49.41,49.41,0,0,1,95.73,1.21c3.27,0,7.77,3.14,9.62,6.14,4.59,7.49-.89,21.7-9.06,25.09-1.54.64-4.42.73-5.24-.2A8.86,8.86,0,0,1,89,26c.85-6.71,5.69-10.34,11.72-12.76C99.46,8.57,96.22,8,93,9.47,88.6,11.52,84.09,13.84,80.54,17,53.81,41.1,35.2,70.29,26.5,105.35,25,111.5,24.18,118.3,25.08,124.5c3,20.36,17.77,30.8,38.7,26.33,18.89-4,37.3-10.28,56-15.08,28.84-7.38,57.13-7.42,83.28,9.17,6.62,4.2,12.26,10,18.35,15Z"/><path class="cls-1" d="M499.36,1.84C493,28.18,460.85,50.89,435,46.82c4.51-6.14,8.61-12,13-17.55.93-1.17,3-1.87,4.62-2,16.91-1.48,30-10.44,42-21.4C496.09,4.6,497.55,3.4,499.36,1.84Z"/><path class="cls-1" d="M234.62,58.73c4.11-16.13,9.67-20,24.84-17.12C258.35,56.43,249.66,62.41,234.62,58.73Z"/></g></g></svg>