<svg xmlns="http://www.w3.org/2000/svg" xmlns:xlink="http://www.w3.org/1999/xlink" width="1275.117" height="1183.018" viewBox="0 0 1275.117 1183.018">
  <defs>
    <linearGradient id="linear-gradient" x1="0.5" x2="0.5" y2="1" gradientUnits="objectBoundingBox">
      <stop offset="0" stop-color="#af2484"/>
      <stop offset="1" stop-color="#1a77bb"/>
    </linearGradient>
  </defs>
  <g id="Union_7" data-name="Union 7" fill="url(#linear-gradient)">
    <path d="M 446.8260192871094 1182.518432617188 C 431.6013488769531 1182.518432617188 416.2475280761719 1181.743041992188 401.1911926269531 1180.213989257813 C 386.3528442382813 1178.70703125 371.4426879882813 1176.431518554688 356.8751831054688 1173.450561523438 C 342.4961853027344 1170.508178710938 328.1051940917969 1166.807861328125 314.1020202636719 1162.452514648438 C 300.2556762695313 1158.145874023438 286.4591979980469 1153.096435546875 273.0958557128906 1147.444091796875 C 246.6493530273438 1136.258178710938 221.1415100097656 1122.4130859375 197.2811889648438 1106.293212890625 C 173.6473541259766 1090.326538085938 151.4231872558594 1071.989868164063 131.2258453369141 1051.792724609375 C 111.0285186767578 1031.595336914063 92.69184875488281 1009.371215820313 76.72518157958984 985.7373657226563 C 60.60535049438477 961.8770751953125 46.76018142700195 936.3692016601563 35.57434844970703 909.9227294921875 C 29.92218208312988 896.5595703125 24.87251663208008 882.7630615234375 20.56584930419922 868.9166870117188 C 16.21051597595215 854.91357421875 12.51018333435059 840.522705078125 9.567849159240723 826.1437377929688 C 6.586849689483643 811.5760498046875 4.311349391937256 796.6660766601563 2.804349660873413 781.827880859375 C 1.275349617004395 766.7715454101563 0.5000162720680237 751.417724609375 0.5000162720680237 736.1930541992188 C 0.5000162720680237 721.7403564453125 1.198682904243469 707.1600341796875 2.576683044433594 692.856689453125 C 3.935683012008667 678.7510375976563 5.988849639892578 664.5667114257813 8.679183006286621 650.6978759765625 C 11.33584976196289 637.0015258789063 14.67901611328125 623.2777099609375 18.61534881591797 609.9078979492188 C 22.5090160369873 596.6835327148438 27.07751655578613 583.4847412109375 32.19401550292969 570.67822265625 C 42.3170166015625 545.3400268554688 54.87234878540039 520.7752075195313 69.51118469238281 497.6662292480469 C 83.99851989746094 474.79638671875 100.6818466186523 453.1053771972656 119.0978469848633 433.195556640625 C 137.4791870117188 413.3230590820313 157.7745208740234 395.0218811035156 179.4200134277344 378.800537109375 C 201.2131805419922 362.4685363769531 224.6043548583984 348.0733947753906 248.9436798095703 336.015380859375 C 261.2141723632813 329.9363708496094 273.9093627929688 324.3650512695313 286.6768493652344 319.4557189941406 C 299.5658569335938 314.4998779296875 312.8415222167969 310.098388671875 326.1353454589844 306.3737182617188 C 339.578857421875 302.6070556640625 353.3705139160156 299.4400634765625 367.127685546875 296.9607238769531 C 381.0611877441406 294.44970703125 395.3046875 292.5817260742188 409.4625244140625 291.4088745117188 L 409.7788391113281 291.3825378417969 L 409.8896789550781 291.0850524902344 C 417.7105102539063 270.0832214355469 427.2178344726563 249.4895477294922 438.1480102539063 229.8758850097656 C 448.9625244140625 210.4698791503906 461.3493347167969 191.7000427246094 474.9645080566406 174.0878753662109 C 488.5113525390625 156.5640563964844 503.4935302734375 139.9022216796875 519.4946899414063 124.5655517578125 C 535.5093383789063 109.2158813476563 552.802490234375 94.94654846191406 570.89404296875 82.15354919433594 C 607.75048828125 56.09154891967773 648.1333618164063 35.86621475219727 690.9208374023438 22.03938293457031 C 735.1493530273438 7.746882915496826 781.3674926757813 0.5000496506690979 828.2913208007813 0.5000496506690979 C 843.5159912109375 0.5000496506690979 858.869873046875 1.275382995605469 873.9262084960938 2.804383039474487 C 888.7643432617188 4.31138277053833 903.6743774414063 6.586883068084717 918.2420043945313 9.567882537841797 C 932.6210327148438 12.51021671295166 947.0118408203125 16.21055030822754 961.0150146484375 20.56588363647461 C 974.861328125 24.87254905700684 988.6578369140625 29.92221641540527 1002.02099609375 35.57438278198242 C 1028.467529296875 46.76021575927734 1053.975341796875 60.60538482666016 1077.835693359375 76.7252197265625 C 1101.469482421875 92.69187927246094 1123.693725585938 111.0285491943359 1143.890991210938 131.2258758544922 C 1164.088134765625 151.4230499267578 1182.4248046875 173.6473846435547 1198.391479492188 197.2812194824219 C 1214.511352539063 221.1415557861328 1228.356567382813 246.6493835449219 1239.542358398438 273.0958862304688 C 1245.194702148438 286.459228515625 1250.244140625 300.2555541992188 1254.550903320313 314.10205078125 C 1258.906127929688 328.1050415039063 1262.606567382813 342.4960632324219 1265.548828125 356.8750610351563 C 1268.529907226563 371.4427185058594 1270.805297851563 386.3527221679688 1272.312377929688 401.1910400390625 C 1273.84130859375 416.2473754882813 1274.61669921875 431.6012268066406 1274.61669921875 446.8258972167969 C 1274.61669921875 461.2783813476563 1273.91796875 475.85888671875 1272.539794921875 490.1622314453125 C 1271.181030273438 504.2677307128906 1269.127807617188 518.4520263671875 1266.4375 532.3208618164063 C 1263.780883789063 546.0172119140625 1260.437622070313 559.7409057617188 1256.501220703125 573.1109008789063 C 1252.607666015625 586.335205078125 1248.039184570313 599.5338745117188 1242.922729492188 612.340576171875 C 1232.799682617188 637.6785278320313 1220.244140625 662.243408203125 1205.605346679688 685.3523559570313 C 1191.118041992188 708.2222290039063 1174.434692382813 729.9132080078125 1156.018676757813 749.8228759765625 C 1137.63720703125 769.6953735351563 1117.342041015625 787.9965209960938 1095.696533203125 804.2178955078125 C 1073.9033203125 820.550048828125 1050.51220703125 834.945068359375 1026.172729492188 847.0030517578125 C 1013.90234375 853.08203125 1001.207153320313 858.6533813476563 988.439697265625 863.562744140625 C 975.5506591796875 868.5185546875 962.2750244140625 872.9200439453125 948.981201171875 876.6447143554688 C 935.537841796875 880.411376953125 921.7460327148438 883.578369140625 907.9888305664063 886.0577392578125 C 894.0555419921875 888.5687255859375 879.81201171875 890.4367065429688 865.6541748046875 891.6095581054688 L 865.3378295898438 891.6358642578125 L 865.2269897460938 891.9334106445313 C 857.4061889648438 912.9352416992188 847.8988647460938 933.5288696289063 836.9686889648438 953.1423950195313 C 826.1541748046875 972.5484008789063 813.767333984375 991.3182373046875 800.1521606445313 1008.930358886719 C 786.6053466796875 1026.454345703125 771.6231689453125 1043.116088867188 755.6221923828125 1058.452758789063 C 739.6075439453125 1073.802368164063 722.3143310546875 1088.071899414063 704.2228393554688 1100.86474609375 C 667.3663330078125 1126.926879882813 626.9835205078125 1147.152221679688 584.1961669921875 1160.97900390625 C 539.9677124023438 1175.271606445313 493.7496948242188 1182.518432617188 446.8260192871094 1182.518432617188 Z" stroke="none"/>
    <path d="M 446.8260192871094 1182.018432617188 C 493.697509765625 1182.018432617188 539.8637084960938 1174.779663085938 584.0423583984375 1160.503173828125 C 626.7816772460938 1146.692016601563 667.1190185546875 1126.489379882813 703.9342041015625 1100.456420898438 C 722.00537109375 1087.677856445313 739.2793579101563 1073.424438476563 755.2761840820313 1058.091674804688 C 771.2593383789063 1042.772216796875 786.224853515625 1026.129028320313 799.7566528320313 1008.624572753906 C 813.356689453125 991.0320434570313 825.7294921875 972.283203125 836.5318603515625 952.8990478515625 C 847.44970703125 933.3075561523438 856.946533203125 912.737060546875 864.7583618164063 891.7589111328125 L 864.9800415039063 891.1636962890625 L 865.613037109375 891.1112060546875 C 879.7548217773438 889.939697265625 893.9823608398438 888.0738525390625 907.9002075195313 885.5655517578125 C 921.641845703125 883.0890502929688 935.4180297851563 879.9257202148438 948.84619140625 876.1633911132813 C 962.125 872.44287109375 975.3858642578125 868.04638671875 988.2601928710938 863.0960693359375 C 1001.013366699219 858.1921997070313 1013.694152832031 852.6270751953125 1025.950805664063 846.5550537109375 C 1050.263061523438 834.5105590820313 1073.627807617188 820.1315307617188 1095.396728515625 803.8176879882813 C 1117.01806640625 787.6145629882813 1137.290649414063 769.333740234375 1155.651733398438 749.4833984375 C 1174.046997070313 729.5958862304688 1190.711791992188 707.9290771484375 1205.182983398438 685.0848999023438 C 1219.805541992188 662.001708984375 1232.3466796875 637.4645385742188 1242.458374023438 612.155029296875 C 1247.568969726563 599.3628540039063 1252.13232421875 586.1790771484375 1256.021728515625 572.9697265625 C 1259.953735351563 559.6148681640625 1263.292846679688 545.9065551757813 1265.946655273438 532.2257080078125 C 1268.634033203125 518.3723754882813 1270.684814453125 504.2040405273438 1272.042236328125 490.1142272949219 C 1273.418701171875 475.8267211914063 1274.11669921875 461.2625427246094 1274.11669921875 446.8258972167969 C 1274.11669921875 431.6180419921875 1273.342163085938 416.2812194824219 1271.814819335938 401.2415466308594 C 1270.309692382813 386.4198913574219 1268.036743164063 371.5265502929688 1265.058959960938 356.9753723144531 C 1262.119995117188 342.612548828125 1258.423828125 328.2378845214844 1254.073364257813 314.2505493164063 C 1249.771484375 300.4197082519531 1244.727661132813 286.6388854980469 1239.081909179688 273.2905578613281 C 1227.908569335938 246.8738861083984 1214.078979492188 221.3947143554688 1197.977294921875 197.5610504150391 C 1182.0283203125 173.9535522460938 1163.712158203125 151.7542114257813 1143.537353515625 131.5793762207031 C 1123.362670898438 111.4045486450195 1101.163208007813 93.08838653564453 1077.555908203125 77.13954925537109 C 1053.72216796875 61.03771591186523 1028.243041992188 47.20821762084961 1001.826354980469 36.03488159179688 C 988.4782104492188 30.3890495300293 974.6972045898438 25.34521675109863 960.8665161132813 21.04338264465332 C 946.8792114257813 16.6928825378418 932.5045166015625 12.99671649932861 918.1416625976563 10.05771636962891 C 903.5905151367188 7.080049514770508 888.6972045898438 4.807049751281738 873.87548828125 3.301882982254028 C 858.8359985351563 1.774549603462219 843.4992065429688 1.000049591064453 828.2913208007813 1.000049591064453 C 781.4198608398438 1.000049591064453 735.2533569335938 8.238716125488281 691.07470703125 22.51521682739258 C 648.3353271484375 36.32638168334961 607.9978637695313 56.52904891967773 571.1826782226563 82.56188201904297 C 553.111328125 95.34038543701172 535.8375244140625 109.5940475463867 519.8406982421875 124.9265518188477 C 503.8573608398438 140.2460479736328 488.891845703125 156.8892211914063 475.3600158691406 174.3937225341797 C 461.7601928710938 191.9862213134766 449.3871765136719 210.7350463867188 438.5848388671875 230.119384765625 C 427.6670227050781 249.7108764648438 418.1701965332031 270.2813720703125 410.3583374023438 291.2595520019531 L 410.1366882324219 291.8547058105469 L 409.5036926269531 291.9072265625 C 395.3616943359375 293.0787048339844 381.1341857910156 294.9445495605469 367.2163391113281 297.452880859375 C 353.474853515625 299.9293823242188 339.6985168457031 303.0927124023438 326.2703552246094 306.8550415039063 C 312.9915161132813 310.5755615234375 299.7306823730469 314.9720458984375 286.8563537597656 319.9223937988281 C 274.1031799316406 324.8262023925781 261.4221801757813 330.3913879394531 249.1656799316406 336.46337890625 C 224.853515625 348.508056640625 201.4885101318359 362.8868713378906 179.7198486328125 379.2007141113281 C 158.0985107421875 395.4038696289063 137.8258514404297 413.6847229003906 119.4648513793945 433.5350646972656 C 101.0695190429688 453.4227294921875 84.40468597412109 475.0895385742188 69.93368530273438 497.9337158203125 C 55.31118392944336 521.0169067382813 42.76984786987305 545.5540771484375 32.65818405151367 570.8637084960938 C 27.54751586914063 583.6557006835938 22.98418235778809 596.8397216796875 19.09501647949219 610.049072265625 C 15.1630163192749 623.4038696289063 11.82368278503418 637.1122436523438 9.170016288757324 650.7930297851563 C 6.482682704925537 664.6463623046875 4.431849479675293 678.8148803710938 3.074516296386719 692.9047241210938 C 1.698016285896301 707.1920776367188 1.000016331672668 721.7564086914063 1.000016331672668 736.1930541992188 C 1.000016331672668 751.40087890625 1.774516224861145 766.7377319335938 3.301849603652954 781.7772216796875 C 4.807016372680664 796.598876953125 7.080016136169434 811.4921875 10.05768299102783 826.0433959960938 C 12.99668312072754 840.4061889648438 16.69285011291504 854.7808837890625 21.04335021972656 868.7681884765625 C 25.34518241882324 882.598876953125 30.38901710510254 896.3798828125 36.03485107421875 909.72802734375 C 47.20818328857422 936.1447143554688 61.03784942626953 961.6239013671875 77.13951873779297 985.45751953125 C 93.08834838867188 1009.064880371094 111.4045181274414 1031.264404296875 131.579345703125 1051.439086914063 C 151.7541809082031 1071.613891601563 173.9536895751953 1089.930053710938 197.5610198974609 1105.879028320313 C 221.3946838378906 1121.980712890625 246.8738555908203 1135.810180664063 273.2906799316406 1146.983520507813 C 286.6388549804688 1152.62939453125 300.4198608398438 1157.673217773438 314.2505187988281 1161.97509765625 C 328.2378540039063 1166.325561523438 342.6125183105469 1170.021728515625 356.975341796875 1172.960693359375 C 371.5266723632813 1175.938354492188 386.4200134277344 1178.21142578125 401.2416687011719 1179.716552734375 C 416.2813415527344 1181.243896484375 431.6181945800781 1182.018432617188 446.8260192871094 1182.018432617188 M 446.8260192871094 1183.018432617188 C 200.0506896972656 1183.018432617188 1.627604251552839e-05 982.9677124023438 1.627604251552839e-05 736.1930541992188 C 1.627604251552839e-05 502.0095520019531 180.1415100097656 309.9053955078125 409.4211730957031 290.9105529785156 C 472.6865234375 121.0173797607422 636.356689453125 4.964192703482695e-05 828.2913208007813 4.964192703482695e-05 C 1075.066040039063 4.964192703482695e-05 1275.11669921875 200.0507202148438 1275.11669921875 446.8258972167969 C 1275.11669921875 681.0089111328125 1094.974731445313 873.113037109375 865.6954956054688 892.10791015625 C 802.43017578125 1062.000732421875 638.7601928710938 1183.018432617188 446.8260192871094 1183.018432617188 Z" stroke="none" fill="#707070"/>
  </g>
</svg>
