<svg xmlns="http://www.w3.org/2000/svg" width="440.697" height="312.788" viewBox="0 0 440.697 312.788">
  <g id="Asset_7" data-name="Asset 7" transform="translate(-89.773 -0.07)">
    <g id="Layer_1" data-name="Layer 1" transform="translate(89.773 0.07)">
      <path id="Path_263" data-name="Path 263" d="M473.295,8.744l-.566-.22h-.22a135.135,135.135,0,0,0-17-4.871h-.534A167.006,167.006,0,0,0,431.4.51a192.745,192.745,0,0,0-46.45,2.483,162.451,162.451,0,0,0-30.076,9.145h0a185.422,185.422,0,0,0-68.795,50.944h0c-2.891,3.143-6.977,8.14-11.6,14.205l-2.011,2.734q-4.714,6.553-9.428,13.8l-.189.251c-1.257,1.98-2.514,3.991-3.771,6.066,0,0-98.337-19.045-143,53.93,0,0,35.419,1.823,54.967,12.571a36.77,36.77,0,0,0,.409,50.755L306.6,124.46a51.038,51.038,0,0,1,83.911-57.8L474.081,9.058Z" transform="translate(-33.383 -0.07)" fill="#1b77ba"/>
      <path id="Path_264" data-name="Path 264" d="M188.92,74.447l-82.906,57.135a5.458,5.458,0,0,1-6.285-8.925L186.06,63.133a5.5,5.5,0,0,1,.88-.5,51.228,51.228,0,0,0,1.98,11.817Z" transform="translate(-73.402 133.98)" fill="#af2584"/>
      <path id="Path_265" data-name="Path 265" d="M217.359,79.083,98.375,161.077a5.458,5.458,0,0,1-6.285-8.925L210.665,70.44A51.1,51.1,0,0,0,217.359,79.083Z" transform="translate(-89.773 150.715)" fill="#af2584"/>
      <path id="Path_266" data-name="Path 266" d="M187.88,80.753a5.563,5.563,0,0,1-1.917,2.357l-62.7,43.181a5.311,5.311,0,0,1-3.143.943,5.437,5.437,0,0,1-3.143-9.9L176.692,76.29a50,50,0,0,0,11.188,4.463Z" transform="translate(-36.472 163.25)" fill="#af2584"/>
      <path id="Path_267" data-name="Path 267" d="M238.959,36.206,216.017,69.048a8.077,8.077,0,0,1-10.968,2.231L183.8,57.986a8.187,8.187,0,1,1,8.768-13.828l14.677,9.177,18.511-26.493a8.162,8.162,0,0,1,13.325,9.428Z" transform="translate(103.56 49.905)" fill="#faa21e"/>
      <path id="Path_268" data-name="Path 268" d="M436.218,2.93C407.933,166.353,274.712,169.5,274.712,169.5,255.51,280.4,175.9,278.769,175.9,278.769c13.985-26.713,10.622-48.3,4.557-62.541a36.833,36.833,0,0,1-46.7-5.217L268.9,118.08a51.038,51.038,0,1,0,83.911-57.8Z" transform="translate(4.48 6.058)" fill="#075b8d"/>
    </g>
  </g>
</svg>
