<svg xmlns="http://www.w3.org/2000/svg" width="363.39" height="311.019" viewBox="0 0 363.39 311.019">
  <g id="Group_86" data-name="Group 86" transform="translate(-2346.42 -3013.981)">
    <path id="ic_access_alarms_24px" d="M140.714,27.439,108.35,0,99.2,10.554l32.364,27.439Zm-99.2-16.182L32.364.7,0,27.439,9.146,37.993,41.511,11.257ZM73.875,43.621H63.321V85.836l33.068,20.4,5.629-8.443L73.875,80.911ZM70.357,15.479A63.321,63.321,0,1,0,133.678,78.8,63.058,63.058,0,0,0,70.357,15.479Zm0,112.571a49.25,49.25,0,1,1,49.25-49.25A48.947,48.947,0,0,1,70.357,128.05Z" transform="translate(2454.812 3123.958) rotate(-14)" fill="#1a77bb"/>
    <path id="ic_free_breakfast_24px" d="M24.868,3H4V16.042a5.216,5.216,0,0,0,5.217,5.217h7.825a5.216,5.216,0,0,0,5.217-5.217V12.13h2.608a2.608,2.608,0,0,0,2.608-2.608V5.608A2.6,2.6,0,0,0,24.868,3Zm0,6.521H22.259V5.608h2.608ZM4,23.868H24.868v2.608H4Z" transform="translate(2678.966 3244.082) rotate(30)" fill="#faa21b"/>
    <ellipse id="Ellipse_92" data-name="Ellipse 92" cx="28.061" cy="28.061" rx="28.061" ry="28.061" transform="translate(2346.42 3268.879)" fill="#af2484"/>
    <path id="ic_dialpad_24px" d="M8.4,18.906a2.1,2.1,0,1,0,2.1,2.1A2.107,2.107,0,0,0,8.4,18.906ZM2.1,0A2.1,2.1,0,1,0,4.2,2.1,2.107,2.107,0,0,0,2.1,0Zm0,6.3A2.1,2.1,0,1,0,4.2,8.4,2.107,2.107,0,0,0,2.1,6.3Zm0,6.3a2.1,2.1,0,1,0,2.1,2.1A2.107,2.107,0,0,0,2.1,12.6ZM14.7,4.2a2.1,2.1,0,1,0-2.1-2.1A2.107,2.107,0,0,0,14.7,4.2ZM8.4,12.6a2.1,2.1,0,1,0,2.1,2.1A2.107,2.107,0,0,0,8.4,12.6Zm6.3,0a2.1,2.1,0,1,0,2.1,2.1A2.107,2.107,0,0,0,14.7,12.6Zm0-6.3a2.1,2.1,0,1,0,2.1,2.1A2.107,2.107,0,0,0,14.7,6.3Zm-6.3,0a2.1,2.1,0,1,0,2.1,2.1A2.107,2.107,0,0,0,8.4,6.3ZM8.4,0a2.1,2.1,0,1,0,2.1,2.1A2.107,2.107,0,0,0,8.4,0Z" transform="translate(2364.709 3288.188) rotate(-9)" fill="#fff"/>
    <g id="Group_85" data-name="Group 85" transform="translate(2055 1620.981)">
      <g id="Group_39" data-name="Group 39" transform="translate(606.862 1393)">
        <g id="Group_38" data-name="Group 38">
          <g id="Group_37" data-name="Group 37">
            <g id="Group_36" data-name="Group 36">
              <g id="Group_35" data-name="Group 35">
                <g id="Group_34" data-name="Group 34">
                  <g id="Group_33" data-name="Group 33">
                    <circle id="Ellipse_70" data-name="Ellipse 70" cx="17.839" cy="17.839" r="17.839" transform="translate(0.102)" fill="#1a77bb"/>
                    <path id="ic_people_outline_24px" d="M29.336,15.141a22.687,22.687,0,0,0-8.517,1.893A22.326,22.326,0,0,0,12.3,15.141C8.2,15.141,0,17.185,0,21.292v5.2H41.639v-5.2C41.639,17.185,33.443,15.141,29.336,15.141Zm-7.571,8.517H2.839V21.292c0-1.022,4.845-3.312,9.463-3.312s9.463,2.29,9.463,3.312Zm17.034,0H24.6V21.292a3.444,3.444,0,0,0-.984-2.309,18.259,18.259,0,0,1,5.716-1c4.618,0,9.463,2.29,9.463,3.312ZM12.3,13.249A6.624,6.624,0,1,0,5.678,6.624,6.632,6.632,0,0,0,12.3,13.249Zm0-10.41A3.785,3.785,0,1,1,8.517,6.624,3.8,3.8,0,0,1,12.3,2.839Zm17.034,10.41a6.624,6.624,0,1,0-6.624-6.624A6.632,6.632,0,0,0,29.336,13.249Zm0-10.41a3.785,3.785,0,1,1-3.785,3.785A3.8,3.8,0,0,1,29.336,2.839Z" transform="translate(7.304 9.327) rotate(16)" fill="#af2484" stroke="#fff" stroke-width="1"/>
                  </g>
                </g>
              </g>
            </g>
          </g>
        </g>
      </g>
    </g>
  </g>
</svg>
