<svg xmlns="http://www.w3.org/2000/svg" width="128.332" height="442.381" viewBox="0 0 128.332 442.381">
  <g id="Group_96" data-name="Group 96" transform="translate(-3057.536 -4368.671)">
    <g id="ic_local_see_24px" transform="translate(3057.536 4768.611) rotate(-22)">
      <circle id="Ellipse_17" data-name="Ellipse 17" cx="8.137" cy="8.137" r="8.137" transform="translate(17.292 17.292)" fill="#1a77bb"/>
      <path id="Path_95" data-name="Path 95" d="M19.8,2,15.147,7.086H7.086A5.1,5.1,0,0,0,2,12.172V42.687a5.1,5.1,0,0,0,5.086,5.086H47.773a5.1,5.1,0,0,0,5.086-5.086V12.172a5.1,5.1,0,0,0-5.086-5.086H39.712L35.058,2ZM27.43,40.144A12.715,12.715,0,1,1,40.144,27.43,12.719,12.719,0,0,1,27.43,40.144Z" transform="translate(-2 -2)" fill="#1a77bb"/>
    </g>
    <g id="Asset_1" data-name="Asset 1" transform="translate(3079.037 4368.601)">
      <g id="Layer_1" data-name="Layer 1" transform="translate(-0.037 0.07)">
        <path id="Path_128" data-name="Path 128" d="M112.92,2.174l-.137-.053h-.053A32.773,32.773,0,0,0,108.606.939h-.13A40.5,40.5,0,0,0,102.76.177,46.743,46.743,0,0,0,91.5.779,39.4,39.4,0,0,0,84.2,3h0A44.968,44.968,0,0,0,67.51,15.321h0c-.7.762-1.692,1.974-2.812,3.445l-.488.663q-1.143,1.589-2.286,3.346l-.03.107c-.3.48-.61.968-.915,1.471,0,0-23.848-4.619-34.678,13.079,0,0,8.59.442,13.33,3.049a8.917,8.917,0,0,0,.1,12.309L72.5,30.252a12.377,12.377,0,0,1,20.35-14.016L113.095,2.25Z" transform="translate(-6.227 -0.07)" fill="#989696"/>
        <path id="Path_129" data-name="Path 129" d="M29.8,65.5,9.7,79.352a1.324,1.324,0,0,1-1.524-2.165L29.149,62.752a1.336,1.336,0,0,1,.213-.122A12.423,12.423,0,0,0,29.8,65.5Z" transform="translate(-1.783 -14.949)" fill="#989696"/>
        <path id="Path_130" data-name="Path 130" d="M30.912,72.536,2.049,92.421A1.324,1.324,0,0,1,.525,90.256L29.281,70.44A12.393,12.393,0,0,0,30.912,72.536Z" transform="translate(0.037 -16.807)" fill="#989696"/>
        <path id="Path_131" data-name="Path 131" d="M42.6,77.372a1.349,1.349,0,0,1-.465.572l-15.2,10.472a1.288,1.288,0,0,1-.762.229,1.319,1.319,0,0,1-.762-2.4L39.895,76.29A12.127,12.127,0,0,0,42.6,77.372Z" transform="translate(-5.882 -18.198)" fill="#989696"/>
        <path id="Path_132" data-name="Path 132" d="M104.526,26.5l-5.564,7.965a1.959,1.959,0,0,1-2.66.541L91.12,31.782a1.977,1.977,0,1,1,2.1-3.354l3.559,2.226,4.489-6.425a1.979,1.979,0,1,1,3.232,2.286Z" transform="translate(-21.423 -5.617)" fill="#989696"/>
        <path id="Path_133" data-name="Path 133" d="M117.29,2.93c-6.859,39.632-39.167,40.395-39.167,40.395C73.466,70.252,54.161,69.855,54.161,69.855c3.392-6.478,2.576-11.714,1.105-15.167A8.933,8.933,0,0,1,43.94,53.423L76.713,30.886A12.377,12.377,0,1,0,97.063,16.87Z" transform="translate(-10.423 -0.75)" fill="#989696"/>
      </g>
    </g>
  </g>
</svg>
