<svg xmlns="http://www.w3.org/2000/svg" xmlns:xlink="http://www.w3.org/1999/xlink" viewBox="0 0 113.12 293.5"><defs><style>.cls-1{fill:url(#linear-gradient);}</style><linearGradient id="linear-gradient" x1="56.56" y1="293.5" x2="56.56" gradientUnits="userSpaceOnUse"><stop offset="0" stop-color="#b02585"/><stop offset="1" stop-color="#1e78ba"/></linearGradient></defs><title>half_button</title><g id="Layer_2" data-name="Layer 2"><g id="Layer_1-2" data-name="Layer 1"><path class="cls-1" d="M113.12,146.78c0,.82,0,1.65,0,2.47A151,151,0,0,1,110,177.37,150.74,150.74,0,0,1,101.8,204,152,152,0,0,1,89,228.43,153,153,0,0,1,72.1,250.17a152.56,152.56,0,0,1-20.71,18.4,150.74,150.74,0,0,1-24,14.46,152.49,152.49,0,0,1-27,9.92l-.3.08-.06.31,0,.16V0A152.62,152.62,0,0,1,23.19,8.16,152.22,152.22,0,0,1,48.48,22.47,152.44,152.44,0,0,1,70.59,41.32a152.06,152.06,0,0,1,18.22,22.9,150.43,150.43,0,0,1,13.63,26.46,151.75,151.75,0,0,1,8.34,29.52A152.45,152.45,0,0,1,113.12,146.78Z"/></g></g></svg>