<svg xmlns="http://www.w3.org/2000/svg" width="78.634" height="79.386" viewBox="0 0 78.634 79.386">
  <path id="ic_contacts_24px" d="M47.773,0H7.086V5.086H47.773ZM7.086,61.031H47.773V55.945H7.086ZM47.773,10.172H7.086A5.1,5.1,0,0,0,2,15.258V45.773a5.1,5.1,0,0,0,5.086,5.086H47.773a5.1,5.1,0,0,0,5.086-5.086V15.258A5.1,5.1,0,0,0,47.773,10.172ZM27.43,17.165a5.722,5.722,0,1,1-5.722,5.722A5.73,5.73,0,0,1,27.43,17.165ZM40.144,43.23H14.715V39.416c0-4.247,8.468-6.357,12.715-6.357s12.715,2.111,12.715,6.357Z" transform="translate(39.352 -1.338) rotate(42)" opacity="0.5"/>
</svg>
