<svg xmlns="http://www.w3.org/2000/svg" width="39.741" height="39.741" viewBox="0 0 39.741 39.741">
  <path id="ic_face_24px" d="M11.909,15.8a1.77,1.77,0,1,0,1.77,1.77A1.77,1.77,0,0,0,11.909,15.8Zm8.494,0a1.77,1.77,0,1,0,1.77,1.77A1.77,1.77,0,0,0,20.4,15.8ZM16.156,2A14.156,14.156,0,1,0,30.312,16.156,14.161,14.161,0,0,0,16.156,2Zm0,25.481A11.34,11.34,0,0,1,4.831,16.156,11.477,11.477,0,0,1,4.9,14.939a14.243,14.243,0,0,0,7.375-7.6,14.119,14.119,0,0,0,11.551,5.988,13.817,13.817,0,0,0,3.185-.368A11.307,11.307,0,0,1,16.156,27.481Z" transform="matrix(0.788, -0.616, 0.616, 0.788, -2.807, 17.086)" fill="#af2484"/>
</svg>
