<svg xmlns="http://www.w3.org/2000/svg" width="627.985" height="632.398" viewBox="0 0 627.985 632.398">
  <g id="Group_94" data-name="Group 94" transform="translate(496.758 -1222.7) rotate(-36)" opacity="0.41">
    <g id="Group_14" data-name="Group 14" transform="translate(-1273 907)">
      <g id="Group_13" data-name="Group 13">
        <g id="Group_12" data-name="Group 12">
          <g id="Group_4" data-name="Group 4" transform="translate(0 37.529)">
            <circle id="Ellipse_37" data-name="Ellipse 37" cx="10.137" cy="10.137" r="10.137" fill="#1a77bb"/>
            <circle id="Ellipse_42" data-name="Ellipse 42" cx="10.137" cy="10.137" r="10.137" transform="translate(157.846)" fill="#1a77bb"/>
            <circle id="Ellipse_45" data-name="Ellipse 45" cx="10.137" cy="10.137" r="10.137" transform="translate(315.691)" fill="#1a77bb"/>
            <circle id="Ellipse_38" data-name="Ellipse 38" cx="10.137" cy="10.137" r="10.137" transform="translate(41.843)" fill="#1a77bb"/>
            <circle id="Ellipse_41" data-name="Ellipse 41" cx="10.137" cy="10.137" r="10.137" transform="translate(210.461)" fill="#1a77bb"/>
            <circle id="Ellipse_44" data-name="Ellipse 44" cx="10.137" cy="10.137" r="10.137" transform="translate(379.079)" fill="#1a77bb"/>
            <circle id="Ellipse_39" data-name="Ellipse 39" cx="10.137" cy="10.137" r="10.137" transform="translate(105.23)" fill="#1a77bb"/>
            <circle id="Ellipse_40" data-name="Ellipse 40" cx="10.137" cy="10.137" r="10.137" transform="translate(263.076)" fill="#1a77bb"/>
            <circle id="Ellipse_43" data-name="Ellipse 43" cx="10.137" cy="10.137" r="10.137" transform="translate(420.922)" fill="#1a77bb"/>
          </g>
          <g id="Group_5" data-name="Group 5" transform="translate(0 166.436)">
            <circle id="Ellipse_37-2" data-name="Ellipse 37" cx="10.137" cy="10.137" r="10.137" transform="translate(0 0)" fill="#1a77bb"/>
            <circle id="Ellipse_42-2" data-name="Ellipse 42" cx="10.137" cy="10.137" r="10.137" transform="translate(157.846 0)" fill="#1a77bb"/>
            <circle id="Ellipse_45-2" data-name="Ellipse 45" cx="10.137" cy="10.137" r="10.137" transform="translate(315.691 0)" fill="#1a77bb"/>
            <circle id="Ellipse_38-2" data-name="Ellipse 38" cx="10.137" cy="10.137" r="10.137" transform="translate(41.843 0)" fill="#1a77bb"/>
            <circle id="Ellipse_41-2" data-name="Ellipse 41" cx="10.137" cy="10.137" r="10.137" transform="translate(210.461 0)" fill="#1a77bb"/>
            <circle id="Ellipse_44-2" data-name="Ellipse 44" cx="10.137" cy="10.137" r="10.137" transform="translate(379.079 0)" fill="#1a77bb"/>
            <circle id="Ellipse_39-2" data-name="Ellipse 39" cx="10.137" cy="10.137" r="10.137" transform="translate(105.23 0)" fill="#1a77bb"/>
            <circle id="Ellipse_40-2" data-name="Ellipse 40" cx="10.137" cy="10.137" r="10.137" transform="translate(263.076 0)" fill="#1a77bb"/>
            <circle id="Ellipse_43-2" data-name="Ellipse 43" cx="10.137" cy="10.137" r="10.137" transform="translate(420.922 0)" fill="#1a77bb"/>
          </g>
          <g id="Group_7" data-name="Group 7" transform="translate(0 220.432)">
            <circle id="Ellipse_37-3" data-name="Ellipse 37" cx="10.137" cy="10.137" r="10.137" transform="translate(0 0)" fill="#1a77bb"/>
            <circle id="Ellipse_42-3" data-name="Ellipse 42" cx="10.137" cy="10.137" r="10.137" transform="translate(157.846 0)" fill="#1a77bb"/>
            <circle id="Ellipse_45-3" data-name="Ellipse 45" cx="10.137" cy="10.137" r="10.137" transform="translate(315.691 0)" fill="#1a77bb"/>
            <circle id="Ellipse_38-3" data-name="Ellipse 38" cx="10.137" cy="10.137" r="10.137" transform="translate(41.843 0)" fill="#1a77bb"/>
            <circle id="Ellipse_41-3" data-name="Ellipse 41" cx="10.137" cy="10.137" r="10.137" transform="translate(210.461 0)" fill="#1a77bb"/>
            <circle id="Ellipse_44-3" data-name="Ellipse 44" cx="10.137" cy="10.137" r="10.137" transform="translate(379.079 0)" fill="#1a77bb"/>
            <circle id="Ellipse_39-3" data-name="Ellipse 39" cx="10.137" cy="10.137" r="10.137" transform="translate(105.23 0)" fill="#1a77bb"/>
            <circle id="Ellipse_40-3" data-name="Ellipse 40" cx="10.137" cy="10.137" r="10.137" transform="translate(263.076 0)" fill="#1a77bb"/>
            <circle id="Ellipse_43-3" data-name="Ellipse 43" cx="10.137" cy="10.137" r="10.137" transform="translate(420.922 0)" fill="#1a77bb"/>
          </g>
          <g id="Group_8" data-name="Group 8" transform="translate(0 274.428)">
            <circle id="Ellipse_37-4" data-name="Ellipse 37" cx="10.137" cy="10.137" r="10.137" transform="translate(0 0)" fill="#1a77bb"/>
            <circle id="Ellipse_42-4" data-name="Ellipse 42" cx="10.137" cy="10.137" r="10.137" transform="translate(157.846 0)" fill="#1a77bb"/>
            <circle id="Ellipse_45-4" data-name="Ellipse 45" cx="10.137" cy="10.137" r="10.137" transform="translate(315.691 0)" fill="#1a77bb"/>
            <circle id="Ellipse_38-4" data-name="Ellipse 38" cx="10.137" cy="10.137" r="10.137" transform="translate(41.843 0)" fill="#1a77bb"/>
            <circle id="Ellipse_41-4" data-name="Ellipse 41" cx="10.137" cy="10.137" r="10.137" transform="translate(210.461 0)" fill="#1a77bb"/>
            <circle id="Ellipse_44-4" data-name="Ellipse 44" cx="10.137" cy="10.137" r="10.137" transform="translate(379.079 0)" fill="#1a77bb"/>
            <circle id="Ellipse_39-4" data-name="Ellipse 39" cx="10.137" cy="10.137" r="10.137" transform="translate(105.23 0)" fill="#1a77bb"/>
            <circle id="Ellipse_40-4" data-name="Ellipse 40" cx="10.137" cy="10.137" r="10.137" transform="translate(263.076 0)" fill="#1a77bb"/>
            <circle id="Ellipse_43-4" data-name="Ellipse 43" cx="10.137" cy="10.137" r="10.137" transform="translate(420.922 0)" fill="#1a77bb"/>
          </g>
          <g id="Group_9" data-name="Group 9" transform="translate(0 328.425)">
            <circle id="Ellipse_37-5" data-name="Ellipse 37" cx="10.137" cy="10.137" r="10.137" fill="#1a77bb"/>
            <circle id="Ellipse_42-5" data-name="Ellipse 42" cx="10.137" cy="10.137" r="10.137" transform="translate(157.846)" fill="#1a77bb"/>
            <circle id="Ellipse_45-5" data-name="Ellipse 45" cx="10.137" cy="10.137" r="10.137" transform="translate(315.691)" fill="#1a77bb"/>
            <circle id="Ellipse_38-5" data-name="Ellipse 38" cx="10.137" cy="10.137" r="10.137" transform="translate(41.843)" fill="#1a77bb"/>
            <circle id="Ellipse_41-5" data-name="Ellipse 41" cx="10.137" cy="10.137" r="10.137" transform="translate(210.461)" fill="#1a77bb"/>
            <circle id="Ellipse_44-5" data-name="Ellipse 44" cx="10.137" cy="10.137" r="10.137" transform="translate(379.079)" fill="#1a77bb"/>
            <circle id="Ellipse_39-5" data-name="Ellipse 39" cx="10.137" cy="10.137" r="10.137" transform="translate(105.23)" fill="#1a77bb"/>
            <circle id="Ellipse_40-5" data-name="Ellipse 40" cx="10.137" cy="10.137" r="10.137" transform="translate(263.076)" fill="#1a77bb"/>
            <circle id="Ellipse_43-5" data-name="Ellipse 43" cx="10.137" cy="10.137" r="10.137" transform="translate(420.922)" fill="#1a77bb"/>
          </g>
          <g id="Group_10" data-name="Group 10" transform="translate(0 403.336)">
            <circle id="Ellipse_37-6" data-name="Ellipse 37" cx="10.137" cy="10.137" r="10.137" transform="translate(0 0)" fill="#1a77bb"/>
            <circle id="Ellipse_42-6" data-name="Ellipse 42" cx="10.137" cy="10.137" r="10.137" transform="translate(157.846 0)" fill="#1a77bb"/>
            <circle id="Ellipse_45-6" data-name="Ellipse 45" cx="10.137" cy="10.137" r="10.137" transform="translate(315.691 0)" fill="#1a77bb"/>
            <circle id="Ellipse_38-6" data-name="Ellipse 38" cx="10.137" cy="10.137" r="10.137" transform="translate(41.843 0)" fill="#1a77bb"/>
            <circle id="Ellipse_41-6" data-name="Ellipse 41" cx="10.137" cy="10.137" r="10.137" transform="translate(210.461 0)" fill="#1a77bb"/>
            <circle id="Ellipse_44-6" data-name="Ellipse 44" cx="10.137" cy="10.137" r="10.137" transform="translate(379.079 0)" fill="#1a77bb"/>
            <circle id="Ellipse_39-6" data-name="Ellipse 39" cx="10.137" cy="10.137" r="10.137" transform="translate(105.23 0)" fill="#1a77bb"/>
            <circle id="Ellipse_40-6" data-name="Ellipse 40" cx="10.137" cy="10.137" r="10.137" transform="translate(263.076 0)" fill="#1a77bb"/>
            <circle id="Ellipse_43-6" data-name="Ellipse 43" cx="10.137" cy="10.137" r="10.137" transform="translate(420.922 0)" fill="#1a77bb"/>
          </g>
          <g id="Group_11" data-name="Group 11" transform="translate(0 440.865)">
            <circle id="Ellipse_37-7" data-name="Ellipse 37" cx="10.137" cy="10.137" r="10.137" transform="translate(0 0)" fill="#1a77bb"/>
            <circle id="Ellipse_42-7" data-name="Ellipse 42" cx="10.137" cy="10.137" r="10.137" transform="translate(157.846 0)" fill="#1a77bb"/>
            <circle id="Ellipse_45-7" data-name="Ellipse 45" cx="10.137" cy="10.137" r="10.137" transform="translate(315.691 0)" fill="#1a77bb"/>
            <circle id="Ellipse_38-7" data-name="Ellipse 38" cx="10.137" cy="10.137" r="10.137" transform="translate(41.843 0)" fill="#1a77bb"/>
            <circle id="Ellipse_41-7" data-name="Ellipse 41" cx="10.137" cy="10.137" r="10.137" transform="translate(210.461 0)" fill="#1a77bb"/>
            <circle id="Ellipse_44-7" data-name="Ellipse 44" cx="10.137" cy="10.137" r="10.137" transform="translate(379.079 0)" fill="#1a77bb"/>
            <circle id="Ellipse_39-7" data-name="Ellipse 39" cx="10.137" cy="10.137" r="10.137" transform="translate(105.23 0)" fill="#1a77bb"/>
            <circle id="Ellipse_40-7" data-name="Ellipse 40" cx="10.137" cy="10.137" r="10.137" transform="translate(263.076 0)" fill="#1a77bb"/>
            <circle id="Ellipse_43-7" data-name="Ellipse 43" cx="10.137" cy="10.137" r="10.137" transform="translate(420.922 0)" fill="#1a77bb"/>
          </g>
          <g id="Group_6" data-name="Group 6" transform="translate(0 112.44)">
            <circle id="Ellipse_37-8" data-name="Ellipse 37" cx="10.137" cy="10.137" r="10.137" transform="translate(0 0)" fill="#1a77bb"/>
            <circle id="Ellipse_42-8" data-name="Ellipse 42" cx="10.137" cy="10.137" r="10.137" transform="translate(157.846 0)" fill="#1a77bb"/>
            <circle id="Ellipse_45-8" data-name="Ellipse 45" cx="10.137" cy="10.137" r="10.137" transform="translate(315.691 0)" fill="#1a77bb"/>
            <circle id="Ellipse_38-8" data-name="Ellipse 38" cx="10.137" cy="10.137" r="10.137" transform="translate(41.843 0)" fill="#1a77bb"/>
            <circle id="Ellipse_41-8" data-name="Ellipse 41" cx="10.137" cy="10.137" r="10.137" transform="translate(210.461 0)" fill="#1a77bb"/>
            <circle id="Ellipse_44-8" data-name="Ellipse 44" cx="10.137" cy="10.137" r="10.137" transform="translate(379.079 0)" fill="#1a77bb"/>
            <circle id="Ellipse_39-8" data-name="Ellipse 39" cx="10.137" cy="10.137" r="10.137" transform="translate(105.23 0)" fill="#1a77bb"/>
            <circle id="Ellipse_40-8" data-name="Ellipse 40" cx="10.137" cy="10.137" r="10.137" transform="translate(263.076 0)" fill="#1a77bb"/>
            <circle id="Ellipse_43-8" data-name="Ellipse 43" cx="10.137" cy="10.137" r="10.137" transform="translate(420.922 0)" fill="#1a77bb"/>
          </g>
          <g id="Group_3" data-name="Group 3">
            <g id="Group_2" data-name="Group 2">
              <circle id="Ellipse_46" data-name="Ellipse 46" cx="10.137" cy="10.137" r="10.137" fill="#1a77bb"/>
              <circle id="Ellipse_49" data-name="Ellipse 49" cx="10.137" cy="10.137" r="10.137" transform="translate(157.846)" fill="#1a77bb"/>
              <circle id="Ellipse_52" data-name="Ellipse 52" cx="10.137" cy="10.137" r="10.137" transform="translate(315.691)" fill="#1a77bb"/>
              <circle id="Ellipse_47" data-name="Ellipse 47" cx="10.137" cy="10.137" r="10.137" transform="translate(41.843)" fill="#1a77bb"/>
              <circle id="Ellipse_50" data-name="Ellipse 50" cx="10.137" cy="10.137" r="10.137" transform="translate(210.461)" fill="#1a77bb"/>
              <circle id="Ellipse_53" data-name="Ellipse 53" cx="10.137" cy="10.137" r="10.137" transform="translate(379.079)" fill="#1a77bb"/>
              <circle id="Ellipse_48" data-name="Ellipse 48" cx="10.137" cy="10.137" r="10.137" transform="translate(105.23)" fill="#1a77bb"/>
              <circle id="Ellipse_51" data-name="Ellipse 51" cx="10.137" cy="10.137" r="10.137" transform="translate(263.076)" fill="#1a77bb"/>
              <circle id="Ellipse_54" data-name="Ellipse 54" cx="10.137" cy="10.137" r="10.137" transform="translate(420.922)" fill="#1a77bb"/>
            </g>
          </g>
        </g>
      </g>
    </g>
  </g>
</svg>
