<svg xmlns="http://www.w3.org/2000/svg" width="234.484" height="453.405" viewBox="0 0 234.484 453.405">
  <g id="Group_95" data-name="Group 95" transform="translate(-2182.688 -3902.16)">
    <path id="ic_cloud_queue_24px" d="M49.206,19.359a19.053,19.053,0,0,0-35.6-5.086,15.251,15.251,0,0,0,1.653,30.414H48.316a12.678,12.678,0,0,0,.89-25.328ZM48.316,39.6H15.258a10.172,10.172,0,0,1,0-20.344h1.805A13.984,13.984,0,0,1,44.5,23.072v1.271h3.814a7.629,7.629,0,1,1,0,15.258Z" transform="translate(2199.427 4291.269) rotate(22)" fill="#faa21b"/>
    <path id="ic_gesture_24px" d="M9.741,18.339c2.76-2.8,5.521-5.323,6.743-4.811,1.972.789,0,4.062-1.183,5.994C14.315,21.178,4.023,34.862,4.023,44.4c0,5.047,1.893,9.227,5.284,11.751a11.815,11.815,0,0,0,10.41,1.814c4.219-1.222,7.689-5.521,12.066-10.923,4.771-5.875,11.159-13.565,16.089-13.565,6.428,0,6.506,3.983,6.94,7.058C39.907,43.064,33.6,55.012,33.6,61.715A12.452,12.452,0,0,0,46.255,73.9c6.428,0,16.917-5.245,18.494-24.054h9.7V39.988H64.71c-.591-6.506-4.3-16.562-15.891-16.562-8.872,0-16.483,7.532-19.48,11.2-2.287,2.879-8.123,9.779-9.03,10.726-.986,1.183-2.681,3.312-4.377,3.312-1.774,0-2.839-3.273-1.42-7.571,1.38-4.3,5.521-11.278,7.3-13.88,3.076-4.5,5.126-7.571,5.126-12.934C26.933,5.721,20.466,3,17.036,3,11.831,3,7.3,6.943,6.31,7.929c-1.42,1.42-2.6,2.6-3.47,3.667ZM46.374,64.318a2.961,2.961,0,0,1-2.918-2.839c0-2.366,2.879-8.675,11.317-10.883C53.59,61.2,49.134,64.318,46.374,64.318Z" transform="translate(2320.764 3970.065) rotate(-68)" fill="#af2484" opacity="0.7"/>
  </g>
</svg>
