<svg xmlns="http://www.w3.org/2000/svg" xmlns:xlink="http://www.w3.org/1999/xlink" width="496.714" height="471.318" viewBox="0 0 496.714 471.318">
  <defs>
    <linearGradient id="linear-gradient" x1="0.5" x2="0.5" y2="1" gradientUnits="objectBoundingBox">
      <stop offset="0" stop-color="#af2484"/>
      <stop offset="1" stop-color="#1a77bb"/>
    </linearGradient>
  </defs>
  <g id="Union_5" data-name="Union 5" transform="matrix(0.985, -0.174, 0.174, 0.985, 0, 75.27)" fill="url(#linear-gradient)">
    <path d="M 151.8947296142578 401.6571044921875 C 141.6224517822266 401.6571044921875 131.3567810058594 400.6222839355469 121.3828887939453 398.5812683105469 C 111.6626739501953 396.59228515625 102.1016159057617 393.6243286132813 92.96522521972656 389.760009765625 C 83.99456024169922 385.9657287597656 75.34233856201172 381.2694396972656 67.24884033203125 375.8016052246094 C 59.23211288452148 370.3856201171875 51.69350433349609 364.1657104492188 44.84250259399414 357.3146667480469 C 37.99144744873047 350.463623046875 31.77150344848633 342.925048828125 26.35555839538574 334.9083251953125 C 20.88767051696777 326.8148193359375 16.19139289855957 318.16259765625 12.39711475372314 309.1919860839844 C 8.532781600952148 300.0556030273438 5.564836978912354 290.4945373535156 3.575836896896362 280.7743835449219 C 1.534837007522583 270.8005065917969 0.5000036358833313 260.5348205566406 0.5000036358833313 250.2626037597656 C 0.5000036358833313 240.5098266601563 1.433448076248169 230.7526092529297 3.274392604827881 221.2621002197266 C 5.070225715637207 212.0041046142578 7.753781318664551 202.8720550537109 11.25055885314941 194.1196594238281 C 14.68428134918213 185.5249938964844 18.94300270080566 177.1926574707031 23.90855979919434 169.3540496826172 C 28.82272529602051 161.5964965820313 34.48178100585938 154.23876953125 40.72855758666992 147.4852752685547 C 46.96366882324219 140.744384765625 53.84794998168945 134.5365447998047 61.19022750854492 129.0341644287109 C 68.58250427246094 123.4942779541016 76.51683807373047 118.611442565918 84.77283477783203 114.5213317871094 C 93.15328216552734 110.369499206543 101.9625625610352 106.9867172241211 110.9560012817383 104.4668884277344 C 120.1506729125977 101.8907165527344 129.6602325439453 100.1828842163086 139.2205047607422 99.39083099365234 L 139.5369415283203 99.36460876464844 L 139.6477813720703 99.06705474853516 C 144.9548950195313 84.81533050537109 152.3815002441406 71.46321868896484 161.7212219238281 59.38155364990234 C 170.9710083007813 47.41627502441406 181.9190063476563 36.92427444458008 194.2611083984375 28.19688606262207 C 206.7628936767578 19.35655212402344 220.4607238769531 12.4961633682251 234.9741668701172 7.806107997894287 C 249.9764556884766 2.958107709884644 265.6537780761719 0.499996691942215 281.5706176757813 0.499996691942215 C 291.8428344726563 0.499996691942215 302.1084899902344 1.5348299741745 312.0823974609375 3.575829982757568 C 321.8025512695313 5.56482982635498 331.3636169433594 8.532774925231934 340.5 12.39710807800293 C 349.4706115722656 16.19138526916504 358.1228332519531 20.88766288757324 366.2163391113281 26.35555267333984 C 374.2330627441406 31.7714958190918 381.7716064453125 37.99143981933594 388.6226806640625 44.84249496459961 C 395.4737243652344 51.69349670410156 401.693603515625 59.23210906982422 407.109619140625 67.24883270263672 C 412.5774536132813 75.34233093261719 417.2737121582031 83.99455261230469 421.0679931640625 92.96521759033203 C 424.9323425292969 102.1016082763672 427.9002685546875 111.6626663208008 429.8892822265625 121.3828887939453 C 431.9302673339844 131.3567810058594 432.9651184082031 141.6224365234375 432.9651184082031 151.8947143554688 C 432.9651184082031 161.6474914550781 432.0316772460938 171.4046630859375 430.1907348632813 180.8951568603516 C 428.3948974609375 190.1531066894531 425.7113342285156 199.28515625 422.2145690917969 208.0375518798828 C 418.7808227539063 216.6321563720703 414.5220642089844 224.9644927978516 409.5565490722656 232.8031005859375 C 404.6423950195313 240.5606689453125 398.9833374023438 247.9183349609375 392.736572265625 254.6718292236328 C 386.5014343261719 261.4127197265625 379.6171264648438 267.62060546875 372.27490234375 273.1229553222656 C 364.882568359375 278.662841796875 356.9482116699219 283.545654296875 348.6922912597656 287.6358337402344 C 340.3118286132813 291.78759765625 331.5025634765625 295.1703796386719 322.5091247558594 297.6902160644531 C 313.314453125 300.2663879394531 303.8049011230469 301.9742126464844 294.24462890625 302.7662658691406 L 293.9281616210938 302.7925109863281 L 293.8173217773438 303.0900573730469 C 288.5102233886719 317.3417663574219 281.0836181640625 330.6938781738281 271.743896484375 342.7754821777344 C 262.4941101074219 354.7407836914063 251.5461730957031 365.2327880859375 239.2040557861328 373.9601745605469 C 226.7022857666016 382.8005065917969 213.0044555664063 389.6609497070313 198.4910583496094 394.3509826660156 C 183.4887847900391 399.1989440917969 167.8115539550781 401.6571044921875 151.8947296142578 401.6571044921875 Z" stroke="none"/>
    <path d="M 151.8947296142578 401.1571044921875 C 167.75927734375 401.1571044921875 183.3847808837891 398.7071228027344 198.3373413085938 393.8752136230469 C 212.8025665283203 389.2007141113281 226.4549407958984 382.3630065917969 238.9153900146484 373.5519409179688 C 251.2168884277344 364.8532104492188 262.1289367675781 354.3956604003906 271.3482666015625 342.4697265625 C 280.6572265625 330.4279479980469 288.0592346191406 317.1199951171875 293.3487854003906 302.9155578613281 L 293.5704040527344 302.3203735351563 L 294.2033386230469 302.2679443359375 C 303.7319946289063 301.4785461425781 313.2100524902344 299.7763977050781 322.3742370605469 297.2087097167969 C 331.3377380371094 294.6973266601563 340.1177368164063 291.3257751464844 348.4703369140625 287.1877746582031 C 356.6990051269531 283.1111755371094 364.6071166992188 278.2445068359375 371.9750061035156 272.7228393554688 C 379.2931823730469 267.2385559082031 386.1548461914063 261.0511169433594 392.3695068359375 254.3323364257813 C 398.5957336425781 247.6010589599609 404.2361755371094 240.2675476074219 409.1341552734375 232.5355529785156 C 414.0832824707031 224.7228851318359 418.3279418945313 216.4181671142578 421.7502746582031 207.8519897460938 C 425.2353820800781 199.1287689208984 427.9100036621094 190.0271148681641 429.6998901367188 180.7999420166016 C 431.5347900390625 171.3407135009766 432.4651184082031 161.6156005859375 432.4651184082031 151.8947143554688 C 432.4651184082031 141.6560516357422 431.4336853027344 131.4241027832031 429.3994445800781 121.4831085205078 C 427.4170532226563 111.7952728271484 424.4590148925781 102.265998840332 420.6075134277344 93.15999603271484 C 416.8257751464844 84.21905517578125 412.1450500488281 75.59544372558594 406.6952819824219 67.52871704101563 C 401.297119140625 59.53838729858398 395.09765625 52.02455139160156 388.2691040039063 45.19605255126953 C 381.4405517578125 38.36749649047852 373.9267883300781 32.16799545288086 365.9364624023438 26.76983070373535 C 357.8697204589844 21.32005310058594 349.2461242675781 16.63932991027832 340.3052368164063 12.85766315460205 C 331.19921875 9.006107330322266 321.6700134277344 6.048052310943604 311.982177734375 4.06566333770752 C 302.0411682128906 2.031441211700439 291.8092956542969 0.9999966621398926 281.5706176757813 0.9999966621398926 C 265.7060546875 0.9999966621398926 250.0804443359375 3.449996709823608 235.1279449462891 8.281885147094727 C 220.6626739501953 12.95633029937744 207.0102233886719 19.79405212402344 194.5497741699219 28.6051082611084 C 182.2482299804688 37.30382919311523 171.3362274169922 47.76138687133789 162.1168365478516 59.68732833862305 C 152.8078918457031 71.72911071777344 145.4058990478516 85.03705596923828 140.1163330078125 99.24155426025391 L 139.8947296142578 99.83671569824219 L 139.2617797851563 99.88916015625 C 129.7331085205078 100.6785507202148 120.2550582885742 102.3807220458984 111.0908889770508 104.9483871459961 C 102.1273956298828 107.4597778320313 93.34738922119141 110.8313293457031 84.99478149414063 114.9693298339844 C 76.76611328125 119.0459442138672 68.85800170898438 123.9126663208008 61.49005889892578 129.4342803955078 C 54.17194747924805 134.9185485839844 47.31027984619141 141.1060485839844 41.09561538696289 147.8247680664063 C 34.86939239501953 154.5561065673828 29.2288932800293 161.8896026611328 24.33094787597656 169.6216125488281 C 19.38183784484863 177.4342803955078 15.13717079162598 185.7390594482422 11.71483707427979 194.3051605224609 C 8.22972583770752 203.0284423828125 5.55511474609375 212.1301116943359 3.765225887298584 221.3573303222656 C 1.930336952209473 230.8165588378906 1.000003695487976 240.5417175292969 1.000003695487976 250.2626037597656 C 1.000003695487976 260.5012817382813 2.031448125839233 270.733154296875 4.065670490264893 280.6741638183594 C 6.048058986663818 290.3619995117188 9.006114959716797 299.8912048339844 12.85767078399658 308.9972229003906 C 16.63933753967285 317.9381103515625 21.32005882263184 326.5617065429688 26.76983642578125 334.6284484863281 C 32.16800308227539 342.6187744140625 38.36750411987305 350.1325378417969 45.19606018066406 356.9611206054688 C 52.02455902099609 363.7896728515625 59.53839111328125 369.9891052246094 67.52872467041016 375.3872680664063 C 75.59545135498047 380.8370666503906 84.21906280517578 385.5177612304688 93.16000366210938 389.2994995117188 C 102.2660064697266 393.1510009765625 111.795280456543 396.1090393066406 121.4831161499023 398.0914306640625 C 131.4241180419922 400.1256713867188 141.6560516357422 401.1571044921875 151.8947296142578 401.1571044921875 M 151.8947296142578 402.1571044921875 C 68.00556182861328 402.1571044921875 3.648545998657937e-06 334.1515502929688 3.648545998657937e-06 250.2626037597656 C 3.648545998657937e-06 170.6539459228516 61.23761367797852 105.3497161865234 139.1792297363281 98.89255523681641 C 160.6857757568359 41.13882827758789 216.3240661621094 -3.309461817480042e-06 281.5706176757813 -3.309461817480042e-06 C 365.4595642089844 -3.309461817480042e-06 433.4651184082031 68.00555419921875 433.4651184082031 151.8947143554688 C 433.4651184082031 231.5031585693359 372.2274475097656 296.807373046875 294.285888671875 303.2645568847656 C 272.7793273925781 361.0181579589844 217.14111328125 402.1571044921875 151.8947296142578 402.1571044921875 Z" stroke="none" fill="#707070"/>
  </g>
</svg>
