<svg xmlns="http://www.w3.org/2000/svg" width="361.926" height="368.506" viewBox="0 0 361.926 368.506">
  <g id="Group_84" data-name="Group 84" transform="matrix(0.574, 0.819, -0.819, 0.574, 1676.967, 522.547)" opacity="0.56">
    <g id="Group_14" data-name="Group 14" transform="translate(-1273 907)">
      <g id="Group_13" data-name="Group 13">
        <g id="Group_12" data-name="Group 12">
          <g id="Group_4" data-name="Group 4" transform="translate(0 29.137)">
            <circle id="Ellipse_37" data-name="Ellipse 37" cx="7.87" cy="7.87" r="7.87" fill="#faa21b"/>
            <circle id="Ellipse_42" data-name="Ellipse 42" cx="7.87" cy="7.87" r="7.87" transform="translate(97.457)" fill="#faa21b"/>
            <circle id="Ellipse_45" data-name="Ellipse 45" cx="7.87" cy="7.87" r="7.87" transform="translate(194.915)" fill="#faa21b"/>
            <circle id="Ellipse_38" data-name="Ellipse 38" cx="7.87" cy="7.87" r="7.87" transform="translate(32.486)" fill="#faa21b"/>
            <circle id="Ellipse_41" data-name="Ellipse 41" cx="7.87" cy="7.87" r="7.87" transform="translate(129.943)" fill="#faa21b"/>
            <circle id="Ellipse_44" data-name="Ellipse 44" cx="7.87" cy="7.87" r="7.87" transform="translate(227.4)" fill="#faa21b"/>
            <circle id="Ellipse_39" data-name="Ellipse 39" cx="7.87" cy="7.87" r="7.87" transform="translate(64.972)" fill="#faa21b"/>
            <circle id="Ellipse_40" data-name="Ellipse 40" cx="7.87" cy="7.87" r="7.87" transform="translate(162.429)" fill="#faa21b"/>
            <circle id="Ellipse_43" data-name="Ellipse 43" cx="7.87" cy="7.87" r="7.87" transform="translate(259.886)" fill="#faa21b"/>
          </g>
          <g id="Group_5" data-name="Group 5" transform="translate(0 87.41)">
            <circle id="Ellipse_37-2" data-name="Ellipse 37" cx="7.87" cy="7.87" r="7.87" transform="translate(0 0)" fill="#faa21b"/>
            <circle id="Ellipse_42-2" data-name="Ellipse 42" cx="7.87" cy="7.87" r="7.87" transform="translate(97.457 0)" fill="#faa21b"/>
            <circle id="Ellipse_45-2" data-name="Ellipse 45" cx="7.87" cy="7.87" r="7.87" transform="translate(194.915 0)" fill="#faa21b"/>
            <circle id="Ellipse_38-2" data-name="Ellipse 38" cx="7.87" cy="7.87" r="7.87" transform="translate(32.486 0)" fill="#faa21b"/>
            <circle id="Ellipse_41-2" data-name="Ellipse 41" cx="7.87" cy="7.87" r="7.87" transform="translate(129.943 0)" fill="#faa21b"/>
            <circle id="Ellipse_44-2" data-name="Ellipse 44" cx="7.87" cy="7.87" r="7.87" transform="translate(227.4 0)" fill="#faa21b"/>
            <circle id="Ellipse_39-2" data-name="Ellipse 39" cx="7.87" cy="7.87" r="7.87" transform="translate(64.972 0)" fill="#faa21b"/>
            <circle id="Ellipse_40-2" data-name="Ellipse 40" cx="7.87" cy="7.87" r="7.87" transform="translate(162.429 0)" fill="#faa21b"/>
            <circle id="Ellipse_43-2" data-name="Ellipse 43" cx="7.87" cy="7.87" r="7.87" transform="translate(259.886 0)" fill="#faa21b"/>
          </g>
          <g id="Group_7" data-name="Group 7" transform="translate(0 116.547)">
            <circle id="Ellipse_37-3" data-name="Ellipse 37" cx="7.87" cy="7.87" r="7.87" transform="translate(0 0)" fill="#faa21b"/>
            <circle id="Ellipse_42-3" data-name="Ellipse 42" cx="7.87" cy="7.87" r="7.87" transform="translate(97.457 0)" fill="#faa21b"/>
            <circle id="Ellipse_45-3" data-name="Ellipse 45" cx="7.87" cy="7.87" r="7.87" transform="translate(194.915 0)" fill="#faa21b"/>
            <circle id="Ellipse_38-3" data-name="Ellipse 38" cx="7.87" cy="7.87" r="7.87" transform="translate(32.486 0)" fill="#faa21b"/>
            <circle id="Ellipse_41-3" data-name="Ellipse 41" cx="7.87" cy="7.87" r="7.87" transform="translate(129.943 0)" fill="#faa21b"/>
            <circle id="Ellipse_44-3" data-name="Ellipse 44" cx="7.87" cy="7.87" r="7.87" transform="translate(227.4 0)" fill="#faa21b"/>
            <circle id="Ellipse_39-3" data-name="Ellipse 39" cx="7.87" cy="7.87" r="7.87" transform="translate(64.972 0)" fill="#faa21b"/>
            <circle id="Ellipse_40-3" data-name="Ellipse 40" cx="7.87" cy="7.87" r="7.87" transform="translate(162.429 0)" fill="#faa21b"/>
            <circle id="Ellipse_43-3" data-name="Ellipse 43" cx="7.87" cy="7.87" r="7.87" transform="translate(259.886 0)" fill="#faa21b"/>
          </g>
          <g id="Group_8" data-name="Group 8" transform="translate(0 145.684)">
            <circle id="Ellipse_37-4" data-name="Ellipse 37" cx="7.87" cy="7.87" r="7.87" transform="translate(0 0)" fill="#faa21b"/>
            <circle id="Ellipse_42-4" data-name="Ellipse 42" cx="7.87" cy="7.87" r="7.87" transform="translate(97.457 0)" fill="#faa21b"/>
            <circle id="Ellipse_45-4" data-name="Ellipse 45" cx="7.87" cy="7.87" r="7.87" transform="translate(194.915 0)" fill="#faa21b"/>
            <circle id="Ellipse_38-4" data-name="Ellipse 38" cx="7.87" cy="7.87" r="7.87" transform="translate(32.486 0)" fill="#faa21b"/>
            <circle id="Ellipse_41-4" data-name="Ellipse 41" cx="7.87" cy="7.87" r="7.87" transform="translate(129.943 0)" fill="#faa21b"/>
            <circle id="Ellipse_44-4" data-name="Ellipse 44" cx="7.87" cy="7.87" r="7.87" transform="translate(227.4 0)" fill="#faa21b"/>
            <circle id="Ellipse_39-4" data-name="Ellipse 39" cx="7.87" cy="7.87" r="7.87" transform="translate(64.972 0)" fill="#faa21b"/>
            <circle id="Ellipse_40-4" data-name="Ellipse 40" cx="7.87" cy="7.87" r="7.87" transform="translate(162.429 0)" fill="#faa21b"/>
            <circle id="Ellipse_43-4" data-name="Ellipse 43" cx="7.87" cy="7.87" r="7.87" transform="translate(259.886 0)" fill="#faa21b"/>
          </g>
          <g id="Group_9" data-name="Group 9" transform="translate(0 174.82)">
            <circle id="Ellipse_37-5" data-name="Ellipse 37" cx="7.87" cy="7.87" r="7.87" fill="#faa21b"/>
            <circle id="Ellipse_42-5" data-name="Ellipse 42" cx="7.87" cy="7.87" r="7.87" transform="translate(97.457)" fill="#faa21b"/>
            <circle id="Ellipse_45-5" data-name="Ellipse 45" cx="7.87" cy="7.87" r="7.87" transform="translate(194.915)" fill="#faa21b"/>
            <circle id="Ellipse_38-5" data-name="Ellipse 38" cx="7.87" cy="7.87" r="7.87" transform="translate(32.486)" fill="#faa21b"/>
            <circle id="Ellipse_41-5" data-name="Ellipse 41" cx="7.87" cy="7.87" r="7.87" transform="translate(129.943)" fill="#faa21b"/>
            <circle id="Ellipse_44-5" data-name="Ellipse 44" cx="7.87" cy="7.87" r="7.87" transform="translate(227.4)" fill="#faa21b"/>
            <circle id="Ellipse_39-5" data-name="Ellipse 39" cx="7.87" cy="7.87" r="7.87" transform="translate(64.972)" fill="#faa21b"/>
            <circle id="Ellipse_40-5" data-name="Ellipse 40" cx="7.87" cy="7.87" r="7.87" transform="translate(162.429)" fill="#faa21b"/>
            <circle id="Ellipse_43-5" data-name="Ellipse 43" cx="7.87" cy="7.87" r="7.87" transform="translate(259.886)" fill="#faa21b"/>
          </g>
          <g id="Group_10" data-name="Group 10" transform="translate(0 203.957)">
            <circle id="Ellipse_37-6" data-name="Ellipse 37" cx="7.87" cy="7.87" r="7.87" transform="translate(0 0)" fill="#faa21b"/>
            <circle id="Ellipse_42-6" data-name="Ellipse 42" cx="7.87" cy="7.87" r="7.87" transform="translate(97.457 0)" fill="#faa21b"/>
            <circle id="Ellipse_45-6" data-name="Ellipse 45" cx="7.87" cy="7.87" r="7.87" transform="translate(194.915 0)" fill="#faa21b"/>
            <circle id="Ellipse_38-6" data-name="Ellipse 38" cx="7.87" cy="7.87" r="7.87" transform="translate(32.486 0)" fill="#faa21b"/>
            <circle id="Ellipse_41-6" data-name="Ellipse 41" cx="7.87" cy="7.87" r="7.87" transform="translate(129.943 0)" fill="#faa21b"/>
            <circle id="Ellipse_44-6" data-name="Ellipse 44" cx="7.87" cy="7.87" r="7.87" transform="translate(227.4 0)" fill="#faa21b"/>
            <circle id="Ellipse_39-6" data-name="Ellipse 39" cx="7.87" cy="7.87" r="7.87" transform="translate(64.972 0)" fill="#faa21b"/>
            <circle id="Ellipse_40-6" data-name="Ellipse 40" cx="7.87" cy="7.87" r="7.87" transform="translate(162.429 0)" fill="#faa21b"/>
            <circle id="Ellipse_43-6" data-name="Ellipse 43" cx="7.87" cy="7.87" r="7.87" transform="translate(259.886 0)" fill="#faa21b"/>
          </g>
          <g id="Group_11" data-name="Group 11" transform="translate(0 233.094)">
            <circle id="Ellipse_37-7" data-name="Ellipse 37" cx="7.87" cy="7.87" r="7.87" transform="translate(0 0)" fill="#faa21b"/>
            <circle id="Ellipse_42-7" data-name="Ellipse 42" cx="7.87" cy="7.87" r="7.87" transform="translate(97.457 0)" fill="#faa21b"/>
            <circle id="Ellipse_45-7" data-name="Ellipse 45" cx="7.87" cy="7.87" r="7.87" transform="translate(194.915 0)" fill="#faa21b"/>
            <circle id="Ellipse_38-7" data-name="Ellipse 38" cx="7.87" cy="7.87" r="7.87" transform="translate(32.486 0)" fill="#faa21b"/>
            <circle id="Ellipse_41-7" data-name="Ellipse 41" cx="7.87" cy="7.87" r="7.87" transform="translate(129.943 0)" fill="#faa21b"/>
            <circle id="Ellipse_44-7" data-name="Ellipse 44" cx="7.87" cy="7.87" r="7.87" transform="translate(227.4 0)" fill="#faa21b"/>
            <circle id="Ellipse_39-7" data-name="Ellipse 39" cx="7.87" cy="7.87" r="7.87" transform="translate(64.972 0)" fill="#faa21b"/>
            <circle id="Ellipse_40-7" data-name="Ellipse 40" cx="7.87" cy="7.87" r="7.87" transform="translate(162.429 0)" fill="#faa21b"/>
            <circle id="Ellipse_43-7" data-name="Ellipse 43" cx="7.87" cy="7.87" r="7.87" transform="translate(259.886 0)" fill="#faa21b"/>
          </g>
          <g id="Group_6" data-name="Group 6" transform="translate(0 58.273)">
            <circle id="Ellipse_37-8" data-name="Ellipse 37" cx="7.87" cy="7.87" r="7.87" transform="translate(0 0)" fill="#faa21b"/>
            <circle id="Ellipse_42-8" data-name="Ellipse 42" cx="7.87" cy="7.87" r="7.87" transform="translate(97.457 0)" fill="#faa21b"/>
            <circle id="Ellipse_45-8" data-name="Ellipse 45" cx="7.87" cy="7.87" r="7.87" transform="translate(194.915 0)" fill="#faa21b"/>
            <circle id="Ellipse_38-8" data-name="Ellipse 38" cx="7.87" cy="7.87" r="7.87" transform="translate(32.486 0)" fill="#faa21b"/>
            <circle id="Ellipse_41-8" data-name="Ellipse 41" cx="7.87" cy="7.87" r="7.87" transform="translate(129.943 0)" fill="#faa21b"/>
            <circle id="Ellipse_44-8" data-name="Ellipse 44" cx="7.87" cy="7.87" r="7.87" transform="translate(227.4 0)" fill="#faa21b"/>
            <circle id="Ellipse_39-8" data-name="Ellipse 39" cx="7.87" cy="7.87" r="7.87" transform="translate(64.972 0)" fill="#faa21b"/>
            <circle id="Ellipse_40-8" data-name="Ellipse 40" cx="7.87" cy="7.87" r="7.87" transform="translate(162.429 0)" fill="#faa21b"/>
            <circle id="Ellipse_43-8" data-name="Ellipse 43" cx="7.87" cy="7.87" r="7.87" transform="translate(259.886 0)" fill="#faa21b"/>
          </g>
          <g id="Group_3" data-name="Group 3">
            <g id="Group_2" data-name="Group 2">
              <circle id="Ellipse_46" data-name="Ellipse 46" cx="7.87" cy="7.87" r="7.87" fill="#faa21b"/>
              <circle id="Ellipse_49" data-name="Ellipse 49" cx="7.87" cy="7.87" r="7.87" transform="translate(97.457)" fill="#faa21b"/>
              <circle id="Ellipse_52" data-name="Ellipse 52" cx="7.87" cy="7.87" r="7.87" transform="translate(194.915)" fill="#faa21b"/>
              <circle id="Ellipse_47" data-name="Ellipse 47" cx="7.87" cy="7.87" r="7.87" transform="translate(32.486)" fill="#faa21b"/>
              <circle id="Ellipse_50" data-name="Ellipse 50" cx="7.87" cy="7.87" r="7.87" transform="translate(129.943)" fill="#faa21b"/>
              <circle id="Ellipse_53" data-name="Ellipse 53" cx="7.87" cy="7.87" r="7.87" transform="translate(227.4)" fill="#faa21b"/>
              <circle id="Ellipse_48" data-name="Ellipse 48" cx="7.87" cy="7.87" r="7.87" transform="translate(64.972)" fill="#faa21b"/>
              <circle id="Ellipse_51" data-name="Ellipse 51" cx="7.87" cy="7.87" r="7.87" transform="translate(162.429)" fill="#faa21b"/>
              <circle id="Ellipse_54" data-name="Ellipse 54" cx="7.87" cy="7.87" r="7.87" transform="translate(259.886)" fill="#faa21b"/>
            </g>
          </g>
        </g>
      </g>
    </g>
  </g>
</svg>
