<svg xmlns="http://www.w3.org/2000/svg" viewBox="0 0 555.56 137.79"><defs><style>.cls-1{fill:#e42634;}</style></defs><title>airtel</title><g id="Layer_2" data-name="Layer 2"><g id="Layer_1-2" data-name="Layer 1"><path class="cls-1" d="M139.41,43.87c-.2,13.44-6,26.47-14,38.72-10,15.31-23.9,26.63-38.59,37.06-9.74,6.92-19.95,13-31.77,15.71-5,1.13-10,1.67-14.72-1-6.6-3.71-9.5-10.61-7.42-18.75,2.28-8.91,6.33-17,13.22-23.37,5.68-5.23,12.31-7.18,19.82-4.44,5.49,2,6.89,6.14,3.6,11a61.42,61.42,0,0,1-5.87,6.88c-4.37,4.74-8.88,9.35-13.17,14.16a19.35,19.35,0,0,0-3.1,5.16c-1.79,4.11.31,7,4.71,6.34a26.43,26.43,0,0,0,6.64-1.95c13.68-6,25.26-15,36-25.11,7.68-7.19,14.78-14.93,19.62-24.39,4.3-8.4,7.17-17.19,4.75-26.76-1.41-5.57-4-10.57-10.26-11.91a21.65,21.65,0,0,0-8.65,0c-10,2-18.58,7.21-26.91,12.7C62.26,61.3,51.57,69.25,40.48,76.59c-5.25,3.47-10.7,7.13-16.6,9C9.69,90.21-2.75,78.22.53,63.69c1.9-8.42,6.57-15.42,12.26-21.6C32.78,20.38,57.07,5.85,86.28.84c15.19-2.61,29.58.74,41.39,11.45C136.5,20.29,139.32,30.82,139.41,43.87ZM22.16,50.13a37,37,0,0,0,6.32-3c6.17-4.18,12.2-8.57,18.18-13C53.85,28.78,61,23.39,68,17.75c1.19-1,1.28-3.29,1.88-5-1.54-.49-3.2-1.63-4.6-1.36A50.67,50.67,0,0,0,54.6,14.57c-4.79,2.09-9.38,4.67-14,7.15C30.64,27.06,22.07,33.85,17,44.34,15.09,48.35,16.18,50.1,22.16,50.13Zm22.2,51.05c.11.22.28,1.22.8,1.47a2.5,2.5,0,0,0,2.17-.36c3.45-2.74,6.88-5.52,10.16-8.46a3.4,3.4,0,0,0,.78-2.89c-.15-.54-1.63-1-2.52-1C50.43,89.77,45.09,94.88,44.36,101.19ZM113.22,5.72l-.85,1.49,8.65,4.9.73-1.28Z"/><path class="cls-1" d="M228.47,73.66c-.33-3.63-.33-6.77-1-9.76-1-4.45-4.19-6.7-8.56-7.4-7.53-1.21-14.6.75-21.54,3.34-2.52.94-5,2.07-7.69,3.21L183.35,48.9a77.68,77.68,0,0,1,20.17-8.09,53.53,53.53,0,0,1,25.14-.67c14.53,3.33,23.51,14.34,23.62,29.26.12,16.94,0,33.88.09,50.82,0,2.43-1.29,3.68-2.85,5-10.18,8.31-22,11.76-35,12.17-9.53.3-18.32-1.67-25.7-7.86-10.25-8.59-14.27-19.64-11.09-32.73C180.8,84.18,189.82,77.49,201.92,75c5.75-1.19,11.8-1,17.72-1.32C222.33,73.53,225,73.66,228.47,73.66Zm-.26,16.19c-4,0-7.66-.17-11.26,0-15.64.84-17.61,16.76-12.43,25.15a11.59,11.59,0,0,0,8.29,5.54,22.17,22.17,0,0,0,13.54-2,3.44,3.44,0,0,0,1.79-2.36C228.26,107.56,228.21,98.9,228.21,89.85Z"/><path class="cls-1" d="M501.41,91.12h-3.84c-14.72,0-29.45.07-44.17-.06-2.72,0-3.71.84-3.31,3.45.75,4.86.94,9.88,2.37,14.53,2.37,7.7,8.13,11.39,16.21,11.59a45.85,45.85,0,0,0,23.43-6c1-.57,2.08-1.16,3.41-1.9,2.1,4.31,4.17,8.43,6.09,12.62a2.12,2.12,0,0,1-.68,1.93c-15.42,9.66-31.85,13.7-49.56,7.6-12.59-4.33-19.56-14.33-23.18-26.52-5.11-17.23-3.61-34.15,4.76-50.15,7.2-13.76,21.54-20.49,37.72-18.21,16.59,2.33,26.05,11.76,29.12,29.59,1,6,1.23,12.19,1.77,18.3A25,25,0,0,1,501.41,91.12ZM476.34,76a23.26,23.26,0,0,0-2.1-12.56,10.93,10.93,0,0,0-15.75-4.21c-5.78,4-7,10.08-7.52,16.76Z"/><path class="cls-1" d="M417,120.83v14.85c-10.3,1.56-20.3,1.53-29.39-4.33-8.1-5.23-10.72-13.5-10.78-22.48-.2-29.25-.05-58.5-.12-87.75,0-2.19.67-3,2.82-3.25,5.79-.78,11.54-1.81,17.31-2.72,1.27-.2,2.55-.32,4.23-.53v26h15.8V58.17H401.7a4.6,4.6,0,0,0-.46,1.16c0,16.54-.17,33.08.07,49.62.12,8.1,4,11.57,12.15,11.89C414.53,120.87,415.61,120.83,417,120.83Z"/><path class="cls-1" d="M540.37,14.33v3.85q0,44.63,0,89.27c0,9.59,3.08,12.85,12.67,13.39l2.52.15V135.5c-10.4,3.12-27.58.8-34.2-9.21-3.78-5.72-5-12.06-5-18.69q-.1-43.27,0-86.54c0-1,.89-2.72,1.61-2.86C525.25,16.79,532.59,15.64,540.37,14.33Z"/><path class="cls-1" d="M370.39,42c-2.13,4.81-4,9.26-6.12,13.58a3.22,3.22,0,0,1-2.74,1.07,32,32,0,0,0-21.06,3.47,5.3,5.3,0,0,0-3,5.32c.1,22.09.06,44.19.06,66.28v4H313.1v-3.62c0-23.4.05-46.81-.07-70.21a8.67,8.67,0,0,1,3-7.07c13.91-12.79,30-17.93,48.74-14.44A57.2,57.2,0,0,1,370.39,42Z"/><path class="cls-1" d="M270.41,44.53l23.47-3.83v94.83H270.41Z"/><path class="cls-1" d="M282.25,2.72a14.63,14.63,0,0,1,15.1,15.05c-.05,8.69-6.43,15.19-15,15.28A15,15,0,0,1,267,17.81,15.12,15.12,0,0,1,282.25,2.72Z"/><path class="cls-1" d="M44.36,101.19c.73-6.31,6.07-11.41,11.38-11.26.9,0,2.38.47,2.52,1a3.4,3.4,0,0,1-.78,2.89c-3.28,2.94-6.71,5.73-10.16,8.46a2.5,2.5,0,0,1-2.17.36C44.64,102.41,44.47,101.41,44.36,101.19Z"/><path class="cls-1" d="M113.22,5.72l8.53,5.12L121,12.11l-8.65-4.9Z"/></g></g></svg>