<svg xmlns="http://www.w3.org/2000/svg" viewBox="0 0 754.78 225.24"><defs><style>.cls-1,.cls-4{fill:#faa21e;}.cls-2,.cls-7{fill:#af2584;}.cls-3,.cls-8{fill:#1b77ba;}.cls-13,.cls-16,.cls-18,.cls-22,.cls-23,.cls-24,.cls-4,.cls-7,.cls-8{font-size:39.53px;font-family:Mont-HeavyDEMO, Mont;}.cls-5{letter-spacing:-0.05em;}.cls-6{letter-spacing:0em;}.cls-9{letter-spacing:-0.03em;}.cls-10,.cls-13,.cls-25{fill:#232323;}.cls-11,.cls-16{fill:#e0dfde;}.cls-12,.cls-18{fill:#8dc688;}.cls-14{letter-spacing:-0.01em;}.cls-15{letter-spacing:-0.01em;}.cls-17{letter-spacing:-0.01em;}.cls-19,.cls-22{fill:#56baab;}.cls-20,.cls-23{fill:#ec7a84;}.cls-21,.cls-24{fill:#2fa2dc;}.cls-25{font-size:15.92px;font-family:QuicksandBook-Regular, Quicksand;}.cls-26{letter-spacing:-0.01em;}.cls-27{letter-spacing:-0.02em;}.cls-28{letter-spacing:0em;}.cls-29{letter-spacing:-0.01em;}.cls-30{letter-spacing:-0.01em;}.cls-31{letter-spacing:-0.02em;}</style></defs><title>All_colors</title><g id="Layer_2" data-name="Layer 2"><g id="Layer_1-2" data-name="Layer 1"><circle class="cls-1" cx="21" cy="57.5" r="20"/><circle class="cls-2" cx="20" cy="128.51" r="20"/><circle class="cls-3" cx="22.5" cy="191.01" r="20"/><text class="cls-4" transform="translate(58.77 70.54)"><tspan class="cls-5">F</tspan><tspan x="19.72" y="0">A</tspan><tspan class="cls-6" x="49.13" y="0">A</tspan><tspan x="78.74" y="0">21B</tspan></text><text class="cls-7" transform="translate(58.77 141.04)">AF2484</text><text class="cls-8" transform="translate(57.27 204.04)">1<tspan class="cls-9" x="14.9" y="0">A</tspan><tspan x="43.24" y="0">77BB</tspan></text><circle class="cls-10" cx="309.47" cy="61.76" r="20"/><circle class="cls-11" cx="308.47" cy="132.77" r="20"/><circle class="cls-12" cx="310.97" cy="195.27" r="20"/><text class="cls-13" transform="translate(347.24 74.8)">2<tspan class="cls-14" x="22.33" y="0">3</tspan><tspan x="44.31" y="0">2</tspan><tspan class="cls-15" x="66.64" y="0">3</tspan><tspan x="88.62" y="0">23</tspan></text><text class="cls-16" transform="translate(347.24 145.3)">e0d<tspan class="cls-17" x="78.58" y="0">f</tspan><tspan x="95.26" y="0">de</tspan></text><text class="cls-18" transform="translate(345.74 208.29)">8ec688</text><circle class="cls-19" cx="563.4" cy="66.01" r="20"/><circle class="cls-20" cx="562.4" cy="137.02" r="20"/><circle class="cls-21" cx="564.9" cy="199.52" r="20"/><text class="cls-22" transform="translate(601.17 79.05)">55baab</text><text class="cls-23" transform="translate(601.17 149.55)">ed7a84</text><text class="cls-24" transform="translate(599.67 212.55)">2ea3dc</text><text class="cls-25" transform="translate(58.77 16.47)">Primary <tspan class="cls-26" x="66.88" y="0">C</tspan><tspan x="79" y="0">ol</tspan><tspan class="cls-27" x="92.92" y="0">o</tspan><tspan class="cls-28" x="102.55" y="0">rs</tspan></text><text class="cls-25" transform="translate(288.47 13.54)">Se<tspan class="cls-29" x="20.32" y="0">c</tspan><tspan class="cls-28" x="29.17" y="0">o</tspan><tspan class="cls-27" x="39.13" y="0">n</tspan><tspan x="48.57" y="0">dary </tspan><tspan class="cls-30" x="90.07" y="0">C</tspan><tspan class="cls-28" x="102.19" y="0">ol</tspan><tspan class="cls-31" x="116.1" y="0">o</tspan><tspan x="125.74" y="0">rs</tspan></text></g></g></svg>