<svg xmlns="http://www.w3.org/2000/svg" viewBox="0 0 588.46 111.55"><defs><style>.cls-1{fill:#2ea3dc;fill-rule:evenodd;}</style></defs><title>codekago</title><g id="Layer_2" data-name="Layer 2"><g id="Layer_1-2" data-name="Layer 1"><path class="cls-1" d="M57.42,0c.36,0,.72.12,1.08.14A56.28,56.28,0,0,1,75.18,3.32c1.74.62,3.48,1.32,5.17,2.07q20.19,9.05,40.36,18.16l45.74,20.52.85.4V66.64l-1.15.55L84.21,104.43c-1.39.62-2.73,1.35-4.1,2.05a44.77,44.77,0,0,1-16.58,4.67c-2.38.21-4.78.4-7.17.39a55.3,55.3,0,0,1-31.93-10A55.47,55.47,0,0,1,2,70.69a50.12,50.12,0,0,1-2-15,54.52,54.52,0,0,1,16-38.4A57.4,57.4,0,0,1,54.75.14c.36,0,.72-.09,1.07-.14Zm81.86,55.37-1.16-.48L95.39,38.59,58.25,24.41A4.77,4.77,0,0,0,56,24c-1.89.2-3.8.24-5.64.62A32.58,32.58,0,0,0,30,37.57c-5.7,7.73-7.68,16.34-5.37,25.74C27.76,76.19,39.41,86.5,53.76,87.76a9.08,9.08,0,0,0,4.37-.47q40-15.78,80-31.45Z"/><path class="cls-1" d="M588.46,56.87c-.07.62-.16,1.24-.19,1.87-.5,9.11-6,19.45-18.88,21.51a28,28,0,0,1-12.83-.79,20.15,20.15,0,0,1-13.32-12,29.56,29.56,0,0,1-.09-23c2.84-7,8.21-11.22,15.54-12.86a27.17,27.17,0,0,1,13.81.44c7.62,2.27,12.44,7.38,14.73,14.93a21.57,21.57,0,0,1,1,6.27,11.47,11.47,0,0,0,.17,1.46Zm-12-1.57c0-.57-.09-1.63-.21-2.69a17.09,17.09,0,0,0-2-6.53,11,11,0,0,0-19.08-.1,13.63,13.63,0,0,0-.89,1.89,22.57,22.57,0,0,0-1.28,9.8A18.7,18.7,0,0,0,554.86,65c2.54,5.08,7.62,7,12.82,5.78a10.41,10.41,0,0,0,7.18-6.38A22.17,22.17,0,0,0,576.48,55.3Z"/><path class="cls-1" d="M520.08,37.24c.16-1.68.33-3.36.49-5.06h10.16c0,.39,0,.78,0,1.16V67.66c0,4.38,0,8.78,0,13.17a29.56,29.56,0,0,1-.84,7.22,17.57,17.57,0,0,1-7.77,10.71,26.11,26.11,0,0,1-9.7,3.73,50,50,0,0,1-22-.92c-1.64-.44-1.64-.47-1.64-2.19V91.6c.41.11.68.17,1,.25a44.25,44.25,0,0,0,14.56,1.89,22.29,22.29,0,0,0,8-1.53,10.19,10.19,0,0,0,6.15-6,12.73,12.73,0,0,0,.72-4c.07-2,.06-3.91.08-5.88a1.68,1.68,0,0,0-.09-.35c-.33.23-.62.43-.91.64a20.36,20.36,0,0,1-13.3,4c-6.53-.39-11.71-3.2-15.16-8.89a25.63,25.63,0,0,1-3.49-11.12,38.79,38.79,0,0,1,.41-10.83,24.58,24.58,0,0,1,6.45-13A18.57,18.57,0,0,1,507.41,31a15.91,15.91,0,0,1,11.75,5.53l.72.81Zm-.92,18.93c0-3.25,0-6.51,0-9.77a1.85,1.85,0,0,0-.54-1.42,14.72,14.72,0,0,0-6.92-4.16,9.61,9.61,0,0,0-9.45,2.24,11.94,11.94,0,0,0-3.2,5.66,28.27,28.27,0,0,0-.49,12.83,14.73,14.73,0,0,0,1.9,5.21,9,9,0,0,0,7.34,4.52,13.85,13.85,0,0,0,10.69-4,1.9,1.9,0,0,0,.67-1.56C519.14,62.56,519.16,59.36,519.16,56.17Z"/><path class="cls-1" d="M321.45,79.38H311c-.16-1.62-.34-3.23-.52-5a5.14,5.14,0,0,0-.51.42c-4.36,4.66-9.77,6.33-16,5.63a17.93,17.93,0,0,1-12.38-6.68,21.11,21.11,0,0,1-4.16-8.86,35.22,35.22,0,0,1,1.09-20A20.68,20.68,0,0,1,285.66,35c6.63-4.81,13.69-5.34,21-1.71,1,.48,1.9,1.08,2.93,1.68V8.85h11.55c0,.33,0,.68,0,1q0,5.83,0,11.68,0,22.78,0,45.58c0,3.69.14,7.38.21,11.08C321.46,78.57,321.45,78.93,321.45,79.38Zm-11.83-24q0-5.24,0-10.47a1.2,1.2,0,0,0-.44-1.13c-2.8-2-5.8-3.51-9.36-3.47a9.75,9.75,0,0,0-8.76,5,15.77,15.77,0,0,0-1.95,5,30.19,30.19,0,0,0-.36,9.72,17.13,17.13,0,0,0,1.9,6.36,9.24,9.24,0,0,0,9.24,5A13.74,13.74,0,0,0,309.14,67a1.7,1.7,0,0,0,.48-1.34C309.61,62.19,309.62,58.76,309.62,55.34Z"/><path class="cls-1" d="M397.86,79.38H386.43c-.22-.75-.27-69.41-.05-70.54h11.48V51.18c.46-.05.63-.41.86-.65l13.79-14.69c1-1.07,2-2.13,3-3.21a1.37,1.37,0,0,1,1.11-.51c4.33,0,8.65,0,13,0,.15,0,.3,0,.7.05L409.65,54.33l20.79,25c-.46,0-.74.07-1,.07-4,0-8,0-12.06,0a1.77,1.77,0,0,1-1.51-.71q-8.52-10.18-17.06-20.34c-.23-.27-.46-.55-.87-1-.09,1.4,0,2.61,0,3.81s0,2.4,0,3.59V79.38Z"/><path class="cls-1" d="M439,34.23a35.52,35.52,0,0,1,8-2.48,39.56,39.56,0,0,1,11.61-.61,21.36,21.36,0,0,1,11.65,4.47,14.2,14.2,0,0,1,5.2,9.78,27.16,27.16,0,0,1,.15,3c0,6.66,0,13.31,0,20,0,3.29.14,6.58.21,9.87,0,.36,0,.73,0,1.16H465.5c-.18-1.59-.35-3.22-.54-5l-.86.77a19.58,19.58,0,0,1-9.83,5.18,17.62,17.62,0,0,1-11.47-1.5,13.81,13.81,0,0,1-7.62-11.21,16.62,16.62,0,0,1,.73-7.58,15,15,0,0,1,9.71-9.46,22.4,22.4,0,0,1,6.63-1.28,39.09,39.09,0,0,1,11.28,1.11c.13,0,.25.05.46.09a10.3,10.3,0,0,0-.16-3.84c-.7-3.19-2.84-5-5.86-5.9a16.89,16.89,0,0,0-5.44-.53,40,40,0,0,0-12.13,2.6l-1.36.47Zm25,25.11a3.14,3.14,0,0,0-.68-.22c-1.8-.28-3.6-.63-5.41-.79a15.52,15.52,0,0,0-6.79.67,6,6,0,0,0-4.29,5.73A5.86,5.86,0,0,0,451.39,71a10.21,10.21,0,0,0,2.76.3,13.82,13.82,0,0,0,9.51-4.44,1.5,1.5,0,0,0,.43-1.16c0-1.89,0-3.78,0-5.68C464.07,59.81,464,59.58,464,59.34Z"/><path class="cls-1" d="M373.38,68.64c0,.38.06.64.06.9q0,3.74,0,7.48c0,.89,0,.89-.86,1.2A42.48,42.48,0,0,1,365.13,80a49.54,49.54,0,0,1-9.63.61A31.33,31.33,0,0,1,346.3,79a19.24,19.24,0,0,1-12.77-13.24,31.85,31.85,0,0,1,.74-20.84A20.66,20.66,0,0,1,345.07,33a21.51,21.51,0,0,1,11.74-2,31.56,31.56,0,0,1,4.69.86A16.56,16.56,0,0,1,372,40.48a25.83,25.83,0,0,1,2.66,8.21,47.12,47.12,0,0,1,.36,9.45c0,.34-.07.66-.13,1.09H344.16a11.73,11.73,0,0,0,.93,4.54,11.26,11.26,0,0,0,8.27,6.83,25.88,25.88,0,0,0,8.42.53,50.26,50.26,0,0,0,11-2.3ZM344.65,50.07h18.44c-.09-3-.77-5.63-2.88-7.77a6.34,6.34,0,0,0-2.66-1.7c-3.45-1.07-6.65-.67-9.38,1.84C346,44.45,345,47.11,344.65,50.07Z"/><path class="cls-1" d="M268.84,55.43A28.62,28.62,0,0,1,266.37,68c-3.26,6.9-8.76,10.87-16.18,12.23a27.37,27.37,0,0,1-12.54-.54A20.22,20.22,0,0,1,223.58,67.3a29.55,29.55,0,0,1,.11-23.2c2.89-6.86,8.25-10.95,15.47-12.53A27.18,27.18,0,0,1,253,32c7.75,2.32,12.54,7.58,14.78,15.24A28.78,28.78,0,0,1,268.84,55.43Zm-12.06.41c0-.73,0-1.46,0-2.2a17.92,17.92,0,0,0-2.16-7.7,10.14,10.14,0,0,0-6.09-5,11.73,11.73,0,0,0-4.25-.46,10,10,0,0,0-7.82,4.18,16.36,16.36,0,0,0-1.81,3.41,23,23,0,0,0-1.11,10.71,17.12,17.12,0,0,0,1.75,6.2,10.94,10.94,0,0,0,13.6,5.48,10.65,10.65,0,0,0,6.48-6.37A19.22,19.22,0,0,0,256.78,55.84Z"/><path class="cls-1" d="M213.08,33.07v9.38c-.39-.13-.72-.23-1-.35a23.33,23.33,0,0,0-9.67-1.6,14.19,14.19,0,0,0-7.07,2.16,11.65,11.65,0,0,0-4.73,6.12,20.55,20.55,0,0,0-.07,14,12.41,12.41,0,0,0,11.37,8.3,26.75,26.75,0,0,0,10.74-1.7L213.8,69v9.4a21.21,21.21,0,0,1-4.24,1.36,31.49,31.49,0,0,1-17-.48c-8-2.58-12.81-8.17-14.54-16.34a30.28,30.28,0,0,1,.65-15.58c2.66-8.28,8.3-13.51,16.77-15.58a29.44,29.44,0,0,1,16.78,1C212.49,32.81,212.75,32.94,213.08,33.07Z"/></g></g></svg>