<svg xmlns="http://www.w3.org/2000/svg" xmlns:xlink="http://www.w3.org/1999/xlink" viewBox="0 0 507.75 507.75"><defs><style>.cls-1{fill:url(#linear-gradient);}.cls-2{fill:#fff;}</style><linearGradient id="linear-gradient" x1="29.92" y1="461.46" x2="553.51" y2="-23.86" gradientUnits="userSpaceOnUse"><stop offset="0" stop-color="#1b77ba"/><stop offset="0.04" stop-color="#2d6db3"/><stop offset="0.17" stop-color="#5b53a3"/><stop offset="0.29" stop-color="#803f95"/><stop offset="0.41" stop-color="#9a318c"/><stop offset="0.51" stop-color="#a92886"/><stop offset="0.59" stop-color="#af2584"/><stop offset="0.6" stop-color="#b32b7f"/><stop offset="0.69" stop-color="#cc565c"/><stop offset="0.78" stop-color="#e07741"/><stop offset="0.86" stop-color="#ee8f2e"/><stop offset="0.94" stop-color="#f79d22"/><stop offset="1" stop-color="#faa21e"/></linearGradient></defs><title>Favicon</title><g id="Layer_2" data-name="Layer 2"><g id="Layer_1-2" data-name="Layer 1"><circle class="cls-1" cx="253.88" cy="253.88" r="253.88"/><path class="cls-2" d="M390,161.26a3,3,0,0,1-.41-.16.33.33,0,0,0-.16,0A98.7,98.7,0,0,0,377,157.49a2.81,2.81,0,0,0-.39-.07,122,122,0,0,0-17.22-2.37,140.85,140.85,0,0,0-33.94,1.88,118.7,118.7,0,0,0-22,6.68l0,0c-16.63,6.89-33.94,18.49-50.27,37.23l.07,0c-2.11,2.39-5.1,5.95-8.47,10.38-.48.64-1,1.31-1.47,2-2.32,3.19-4.59,6.54-6.87,10.08,0,0-.09.14-.14.18-.92,1.45-1.84,2.92-2.76,4.43,0,0-71.86-13.92-104.49,39.41,0,0,25.88,1.33,40.16,9.16a26.86,26.86,0,0,0,.3,37.09l98.68-67.91a37.29,37.29,0,0,1,61.32-42.23l61-42A4.07,4.07,0,0,0,390,161.26Z"/><path class="cls-2" d="M153,307.2,92.41,349a4,4,0,1,1-4.49-6.51L151,298.94a4,4,0,0,1,.63-.36A37.43,37.43,0,0,0,153,307.2Z"/><path class="cls-2" d="M161.8,322.82,74.85,382.75a4,4,0,1,1-4.49-6.51L157,316.5A37.35,37.35,0,0,0,161.8,322.82Z"/><path class="cls-2" d="M179.2,333.21a4.06,4.06,0,0,1-1.41,1.72L132,366.49a3.87,3.87,0,0,1-2.24.69,4,4,0,0,1-2.26-7.23L171,330A36.53,36.53,0,0,0,179.2,333.21Z"/><path class="cls-2" d="M390.54,161.49c-20.76,119.46-118,121.8-118,121.8-14,81-72.2,79.85-72.2,79.85,10.22-19.52,7.76-35.3,3.33-45.7a26.91,26.91,0,0,1-34.13-3.81l98.68-67.91a37.29,37.29,0,1,0,61.32-42.23Z"/><path class="cls-2" d="M318.85,217.82l-16.76,24a5.9,5.9,0,0,1-8,1.63l-15.52-9.71a5.94,5.94,0,1,1,6.32-10.06l10.72,6.71L309.11,211a5.94,5.94,0,0,1,9.74,6.8Z"/></g></g></svg>