<svg xmlns="http://www.w3.org/2000/svg" viewBox="0 0 335.36 82.81"><defs><style>.cls-1{font-size:47.36px;font-family:Mont-HeavyDEMO, Mont;letter-spacing:-0.02em;}.cls-1,.cls-7{fill:#231f20;}.cls-2{letter-spacing:-0.01em;}.cls-3{letter-spacing:-0.01em;}.cls-4{letter-spacing:0em;}.cls-5{letter-spacing:-0.01em;}.cls-6{letter-spacing:0em;}</style></defs><title>Logo_black</title><g id="Layer_2" data-name="Layer 2"><g id="Layer_1-2" data-name="Layer 1"><text class="cls-1" transform="translate(89.31 67.61)">m<tspan class="cls-2" x="43.43" y="0">y</tspan><tspan class="cls-3" x="72.32" y="0">t</tspan><tspan class="cls-4" x="93.45" y="0">askj</tspan><tspan class="cls-5" x="194.7" y="0">e</tspan><tspan class="cls-6" x="224.68" y="0">t</tspan></text><path class="cls-7" d="M104.55,2.12l-.13-.05h-.05a32.11,32.11,0,0,0-4-1.16l-.13,0A39.7,39.7,0,0,0,94.59.1a45.82,45.82,0,0,0-11,.61A38.62,38.62,0,0,0,76.4,2.89h0A44,44,0,0,0,60,15h0c-.69.78-1.66,1.93-2.76,3.38l-.48.65c-.75,1-1.49,2.13-2.23,3.28l0,.06c-.3.47-.6.95-.9,1.44,0,0-23.38-4.53-34,12.82,0,0,8.42.43,13.07,3a8.74,8.74,0,0,0,.1,12.07l32.1-22.09A12.13,12.13,0,0,1,84.87,15.86L104.72,2.19Z"/><path class="cls-7" d="M27.44,49.59,7.73,63.18a1.29,1.29,0,1,1-1.46-2.12L26.8,46.91l.21-.12A12.18,12.18,0,0,0,27.44,49.59Z"/><path class="cls-7" d="M30.31,54.68,2,74.17A1.29,1.29,0,1,1,.56,72.05L28.75,52.62A12.15,12.15,0,0,0,30.31,54.68Z"/><path class="cls-7" d="M36,58.06a1.32,1.32,0,0,1-.46.56L20.61,68.88a1.26,1.26,0,0,1-.73.23,1.29,1.29,0,0,1-.73-2.35L33.31,57A11.88,11.88,0,0,0,36,58.06Z"/><path class="cls-7" d="M81.4,20.52l-5.45,7.81a1.92,1.92,0,0,1-2.61.53L68.29,25.7a1.93,1.93,0,1,1,2.05-3.27l3.49,2.18,4.4-6.3a1.93,1.93,0,0,1,3.17,2.21Z"/><path class="cls-7" d="M104.72,2.19C98,41.05,66.33,41.82,66.33,41.82c-4.56,26.36-23.49,26-23.49,26,3.32-6.35,2.53-11.48,1.08-14.87a8.76,8.76,0,0,1-11.1-1.24l32.1-22.09A12.13,12.13,0,1,0,84.87,15.86Z"/></g></g></svg>