<svg xmlns="http://www.w3.org/2000/svg" viewBox="0 0 140.18 99.59"><defs><style>.cls-1{fill:#af2584;}.cls-2{fill:#fff;}.cls-3{fill:#faa21e;}.cls-4{fill:#1b77ba;}.cls-5{fill:#74246c;}</style></defs><title>Logo_icon_purple</title><g id="Layer_2" data-name="Layer 2"><g id="Layer_1-2" data-name="Layer 1"><path class="cls-1" d="M139.95,2.83l-.18-.07-.07,0a43,43,0,0,0-5.41-1.55l-.17,0a53.14,53.14,0,0,0-7.5-1A61.33,61.33,0,0,0,111.84,1a51.69,51.69,0,0,0-9.57,2.91h0A59,59,0,0,0,80.37,20.08h0c-.92,1-2.22,2.59-3.69,4.52l-.64.87c-1,1.39-2,2.85-3,4.39L73,30c-.4.63-.8,1.27-1.2,1.93,0,0-31.29-6.06-45.5,17.16,0,0,11.27.58,17.49,4a11.7,11.7,0,0,0,.13,16.15l43-29.57a16.24,16.24,0,0,1,26.7-18.39L140.18,2.93Z"/><path class="cls-2" d="M100.81,15A16.23,16.23,0,1,0,117,31.22,16.24,16.24,0,0,0,100.81,15ZM109,27.47l-7.3,10.45a2.57,2.57,0,0,1-3.49.71L91.41,34.4A2.59,2.59,0,1,1,94.16,30l4.67,2.92,5.89-8.43a2.59,2.59,0,0,1,4.24,3Zm4.34-1.21c0,.16.11.3.15.46l-.37-.23Z"/><path class="cls-3" d="M36.73,66.39,10.35,84.57a1.72,1.72,0,1,1-2-2.84L35.87,62.79a1.75,1.75,0,0,1,.28-.16A16.3,16.3,0,0,0,36.73,66.39Z"/><path class="cls-3" d="M40.57,73.19,2.7,99.28a1.72,1.72,0,1,1-2-2.84l37.73-26A16.26,16.26,0,0,0,40.57,73.19Z"/><path class="cls-3" d="M48.14,77.71a1.77,1.77,0,0,1-.61.75L27.59,92.2a1.69,1.69,0,0,1-1,.3,1.73,1.73,0,0,1-1-3.15l19-13.06A15.91,15.91,0,0,0,48.14,77.71Z"/><path class="cls-4" d="M109,27.47l-7.3,10.45a2.57,2.57,0,0,1-3.49.71L91.41,34.4A2.59,2.59,0,1,1,94.16,30l4.67,2.92,5.89-8.43a2.59,2.59,0,0,1,4.24,3Z"/><path class="cls-5" d="M140.18,2.93c-9,52-51.39,53-51.39,53C82.68,91.26,57.35,90.74,57.35,90.74c4.45-8.5,3.38-15.37,1.45-19.9a11.72,11.72,0,0,1-14.86-1.66l43-29.57a16.24,16.24,0,1,0,26.7-18.39Z"/></g></g></svg>