<svg xmlns="http://www.w3.org/2000/svg" viewBox="0 0 315.12 173.62"><defs><style>.cls-1{fill:#fff;}</style></defs><title>Logo_white_1</title><g id="Layer_2" data-name="Layer 2"><g id="Layer_1-2" data-name="Layer 1"><path class="cls-1" d="M52.52,139.41v21.47H40.73v-20c0-3.58-1.32-5.3-3.82-5.3-3.24,0-4.9,2.23-4.9,6.54v18.77H20.52v-20c0-3.47-1.31-5.3-3.78-5.3-3.2,0-4.95,2.29-4.95,6.54v18.77H0V126.65H8.29L10,130.33a13.2,13.2,0,0,1,10-4.69,11.53,11.53,0,0,1,9.82,5,13.35,13.35,0,0,1,10.51-5C47.64,125.64,52.52,131.35,52.52,139.41Z"/><path class="cls-1" d="M93.93,126.65,79.58,159.36c-4.61,10.48-8.86,14.26-17.7,14.26h-4V163.49h3.24c4.51,0,5.87-1.17,7.47-5.44L54.41,126.65H67.23l7.27,18.86,6.77-18.86Z"/><path class="cls-1" d="M119.9,150.56v10.33h-8.11c-7.57,0-12.17-4.63-12.17-12.24V135.73H93.35V133l15.34-16.33h2.42v10h8.6v9.08h-8.3v10.89a3.63,3.63,0,0,0,4,3.93Z"/><path class="cls-1" d="M161.53,126.61v34.24h-9.12l-1-2.42A16.22,16.22,0,0,1,141.07,162c-10.47,0-18-7.64-18-18.28s7.48-18.15,18-18.15a16.24,16.24,0,0,1,10.46,3.68l1.21-2.65Zm-11.22,17.14a7.67,7.67,0,1,0-7.66,7.81A7.52,7.52,0,0,0,150.31,143.76Z"/><path class="cls-1" d="M182.16,162c-9.33,0-15-4.93-15.11-12.35H178.4c0,2.5,1.74,3.66,4,3.66,1.73,0,3.36-.88,3.36-2.65,0-2-2.59-2.54-5.88-3.08-5.31-.86-12.35-2.46-12.35-10.77,0-6.86,5.85-11.29,14.62-11.29s14.37,4.64,14.5,11.58h-11c0-2.19-1.47-3.2-3.61-3.2-1.89,0-3.16.94-3.16,2.52,0,1.95,2.62,2.4,5.87,3,5.41,1,12.6,2.08,12.6,10.77,0,7.16-6,11.84-15.14,11.84Z"/><path class="cls-1" d="M223.69,160.88l-8.58-14.48v14.48H203.32v-46.6h11.79v25.78l8.16-13.41h13.24L225.84,143l11.75,17.92Z"/><path class="cls-1" d="M234.33,171.08h1.2c5.29,0,8.4-3.12,8.4-8.37V126.65h2v36.17c0,6.25-4,10.16-10.22,10.16h-1.41Zm9.15-55.57h3V119h-3Z"/><path class="cls-1" d="M289.43,144.38h-32c.31,8.76,6.68,15.17,15.16,15.17a14.85,14.85,0,0,0,13.6-8.43h2.16c-3.23,6.77-8.75,10.43-15.75,10.43-9.76,0-17.17-7.67-17.17-17.83S262.86,126,272.63,126s16.83,7.67,16.83,17.55C289.46,143.8,289.44,144.12,289.43,144.38Zm-31.93-1.92h30c-.52-8.67-6.79-14.53-14.83-14.53C264.34,127.93,258.07,134,257.5,142.47Z"/><path class="cls-1" d="M315.12,159v1.93h-4.49c-6.37,0-10.25-3.93-10.25-10.41v-22h-7.89v-1.79h7.89V116.58h2v10.13h12.43v1.79H302.41v21.91c0,5.4,3.06,8.56,8.4,8.56Z"/><path class="cls-1" d="M226,2.83l-.18-.07-.07,0a43,43,0,0,0-5.41-1.55l-.17,0a53.14,53.14,0,0,0-7.5-1A61.33,61.33,0,0,0,197.93,1a51.69,51.69,0,0,0-9.57,2.91h0a59,59,0,0,0-21.89,16.21h0c-.92,1-2.22,2.59-3.69,4.52l-.64.87c-1,1.39-2,2.85-3,4.39l-.06.08c-.4.63-.8,1.27-1.2,1.93,0,0-31.29-6.06-45.5,17.16,0,0,11.27.58,17.49,4A11.7,11.7,0,0,0,130,69.18l43-29.57a16.24,16.24,0,0,1,26.7-18.39L226.27,2.93Z"/><path class="cls-1" d="M122.82,66.39,96.44,84.57a1.72,1.72,0,1,1-2-2.84L122,62.79a1.75,1.75,0,0,1,.28-.16A16.3,16.3,0,0,0,122.82,66.39Z"/><path class="cls-1" d="M126.66,73.19,88.8,99.28a1.72,1.72,0,1,1-2-2.84l37.73-26A16.26,16.26,0,0,0,126.66,73.19Z"/><path class="cls-1" d="M134.24,77.71a1.77,1.77,0,0,1-.61.75L113.68,92.2a1.69,1.69,0,0,1-1,.3,1.73,1.73,0,0,1-1-3.15l19-13.06A15.91,15.91,0,0,0,134.24,77.71Z"/><path class="cls-1" d="M195,27.47l-7.3,10.45a2.57,2.57,0,0,1-3.49.71L177.5,34.4A2.59,2.59,0,1,1,180.25,30l4.67,2.92,5.89-8.43a2.59,2.59,0,0,1,4.24,3Z"/><path class="cls-1" d="M226.27,2.93c-9,52-51.39,53-51.39,53-6.11,35.29-31.44,34.77-31.44,34.77,4.45-8.5,3.38-15.37,1.45-19.9A11.72,11.72,0,0,1,130,69.18l43-29.57a16.24,16.24,0,1,0,26.7-18.39Z"/></g></g></svg>