<svg xmlns="http://www.w3.org/2000/svg" viewBox="0 0 160.97 62.79"><defs><style>.cls-1{fill:#9d9d9d;}.cls-2{fill:#fff;}.cls-3{fill:none;}</style></defs><title>MTN__grey</title><g id="Layer_2" data-name="Layer 2"><g id="Layer_1-2" data-name="Layer 1"><path class="cls-1" d="M79.12,0c20.39.32,39.32,2.22,57.48,9,6.88,2.56,13.42,5.79,18.75,11,7.77,7.54,7.44,16.62-.73,23.78-7.77,6.82-17.17,10.35-26.89,13.12-12.84,3.66-26,5.23-39.33,5.77-18.75.76-37.23-.82-55.35-5.81-8.58-2.36-16.85-5.54-24-11a33.79,33.79,0,0,1-5.23-4.91c-5.12-5.95-5-13.19.11-19.11,5.3-6.14,12.28-9.66,19.64-12.52C37.16,4,51.43,1.68,65.94.61,70.72.26,75.52.16,79.12,0ZM29,47.13c2.85,0,5.14-.11,7.41,0,2,.13,2.79-.73,3.23-2.54,1.17-4.71,2.48-9.38,3.73-14.07.32,4.7.29,9.36.34,14a3.31,3.31,0,0,0,.63,2.24c1.66,1.4,7.12,0,8.19-2,2.51-4.67,5-9.35,7.83-14.67l-4.42,17c2.54,0,4.47-.14,6.37,0,2.35.22,3.44-.63,4-3,1.42-5.9,3.13-11.74,4.69-17.6,1-3.62,1.89-7.25,3-11.36-4,0-7.58.13-11.14,0a4,4,0,0,0-4.43,2.73c-1.92,4.33-4.13,8.53-6.22,12.79l-.7-.13V15.23c-4.17,0-7.94.06-11.7,0a2.45,2.45,0,0,0-2.88,2.18c-1.47,5.8-3.12,11.55-4.67,17.32C31.15,38.6,30.16,42.5,29,47.13Zm80.62-14.86H110c.76,2.7,1.5,5.41,2.27,8.1,2.37,8.27.44,6.51,8.77,6.8,2,.07,2.92-.6,3.43-2.61,2.3-9,4.78-18,7.17-26.93a21.38,21.38,0,0,0,.33-2.39c-2.41,0-4.52.13-6.6,0s-3,.61-3.43,2.59c-.93,4-2.09,7.91-3.15,11.86a41.07,41.07,0,0,1-2.3-7.13c-1.88-7.46-1.88-7.4-9.66-7.33-1.79,0-2.59.58-3,2.34Q100.34,31,96.6,44.45c-.54,1.94-.18,2.81,1.94,2.7a36.05,36.05,0,0,1,4.42,0c1.88.14,2.8-.54,3.26-2.47C107.2,40.51,108.44,36.41,109.58,32.28Zm-32.31,9.3c3.16,0,5.74.16,8.27-.1.77-.08,1.76-1.22,2-2.07,1-3,1.73-6,2.53-9.06,1.66-6.26,1.65-6.2,8.14-6.68A3.7,3.7,0,0,0,101,22a42.31,42.31,0,0,0,1.66-6.36c-1.52-.11-2.59-.24-3.66-.24-6,0-12,0-18,0s-6,0-7.08,5.85c-.32,1.7.15,2.47,1.88,2.45,1.9,0,3.8,0,6.18,0Z"/><path class="cls-2" d="M29,47.13c1.21-4.63,2.19-8.54,3.24-12.43,1.55-5.78,3.2-11.53,4.67-17.32a2.45,2.45,0,0,1,2.88-2.18c3.76.09,7.52,0,11.7,0V30.57l.7.13c2.09-4.25,4.31-8.45,6.22-12.79a4,4,0,0,1,4.43-2.73c3.56.18,7.14,0,11.14,0-1.07,4.11-2,7.74-3,11.36-1.57,5.87-3.28,11.7-4.69,17.6-.56,2.35-1.65,3.2-4,3-1.9-.18-3.83,0-6.37,0l4.42-17c-2.84,5.32-5.33,10-7.83,14.67-1.07,2-6.53,3.4-8.19,2a3.31,3.31,0,0,1-.63-2.24c-.05-4.66,0-9.31-.34-14-1.25,4.69-2.56,9.36-3.73,14.07-.45,1.8-1.27,2.67-3.23,2.54C34.09,47,31.81,47.13,29,47.13Z"/><path class="cls-2" d="M109.58,32.28c-1.13,4.13-2.38,8.24-3.36,12.41-.45,1.93-1.38,2.61-3.26,2.47a36.05,36.05,0,0,0-4.42,0c-2.12.11-2.47-.76-1.94-2.7q3.72-13.43,7.22-26.92c.46-1.76,1.25-2.32,3-2.34,7.78-.08,7.78-.13,9.66,7.33a41.07,41.07,0,0,0,2.3,7.13c1.06-4,2.22-7.88,3.15-11.86.46-2,1.39-2.75,3.43-2.59s4.2,0,6.6,0a21.38,21.38,0,0,1-.33,2.39c-2.39,9-4.87,17.93-7.17,26.93-.51,2-1.43,2.68-3.43,2.61-8.32-.29-6.4,1.47-8.77-6.8-.77-2.7-1.52-5.4-2.27-8.1Z"/><path class="cls-2" d="M77.27,41.58,82,23.73c-2.39,0-4.29,0-6.18,0-1.73,0-2.2-.75-1.88-2.45C75,15.44,75,15.43,81,15.43s12,0,18,0c1.07,0,2.15.14,3.66.24A42.31,42.31,0,0,1,101,22a3.7,3.7,0,0,1-2.72,1.63c-6.48.48-6.48.42-8.14,6.68-.8,3-1.54,6.09-2.53,9.06-.29.86-1.28,2-2,2.07C83,41.74,80.43,41.58,77.27,41.58Z"/><path class="cls-3" d="M142.67,5.1"/><polygon class="cls-2" points="77.06 42.53 75.67 46.98 85.31 47.09 86.45 42.29 77.06 42.53"/></g></g></svg>