<svg xmlns="http://www.w3.org/2000/svg" viewBox="0 0 432.82 163.61"><defs><style>.cls-1{fill:#9d9d9d;}</style></defs><title>pepsi_grey</title><g id="Layer_2" data-name="Layer 2"><g id="Layer_1-2" data-name="Layer 1"><path class="cls-1" d="M4.68,78.28c1.35-27,14.43-50.76,41.76-65C72.66-.39,98.84,1.6,124.06,17c3.33,2,3.89,4.09,2.6,7.73Q101.35,96,31.33,124.15c-1.17.47-2.38.84-3.58,1.24-8.38,2.81-8.42,2.83-12.84-5.07C8.2,108.36,4.79,95.52,4.68,78.28Z"/><path class="cls-1" d="M148.33,43.54c18.94,32,12.37,79.89-25.72,103.92C88,169.27,44.69,158.63,23.55,131.71,34.94,128.82,46,126,57.06,123.2,74,118.86,91.18,115.26,107.82,110,135,101.33,154.11,77.66,148.33,43.54Z"/><path class="cls-1" d="M258.91,85.13c4.76,14.77,23.15,19,35.63,8.54,4.18-3.5,4.18-3.5,11.1-2.32-2.85,3.06-4.89,6-7.61,8.06-9.79,7.42-25.87,7.76-36.22,1.1a25,25,0,0,1-10.76-26.82c2.05-9.12,11.22-17.29,21.08-18.77,15.91-2.4,27.13,2.65,33.21,15,5,10.13,2.87,14-8.34,14-5.66,0-11.32-.92-17-1.5C272.75,81.63,265.61,81.63,258.91,85.13Zm-.19-7.24c11.65-4.12,23.31-1.19,35-.3a37.73,37.73,0,0,0,6.33-.57c-2.4-11.62-12.21-18.18-23.9-16.64C267,61.57,257.59,69,258.72,77.89Z"/><path class="cls-1" d="M193.37,97.38v23.54h-7.6c.49-15.59.11-30.95,1.74-46.09,1.19-11.11,11.32-19,22.22-20.15C223.57,53.2,235.93,58.8,241,68.84c7.62,15.22-2.63,33.38-20.35,36.07C211.43,106.3,208,105.38,193.37,97.38Zm21.06,2.06c12.41.11,21.95-8.31,21.93-19.38,0-10.75-9.49-19.48-21.37-19.7S193.26,68.89,193.09,80C192.92,90.71,202.37,99.34,214.43,99.45Z"/><path class="cls-1" d="M321.87,97.21v23.67h-7c0-5.38-.05-10.57,0-15.76.11-9-.16-18.06.54-27,1-12.57,11.3-22.28,23.5-23.45,18.41-1.76,29.54,8.31,32.67,19.2,4,13.81-6.74,28.6-22.38,31.11C339.85,106.47,335.63,105.32,321.87,97.21Zm21.28,2.26C355.6,99.56,364.9,91.28,365,80c.06-10.76-9.45-19.59-21.27-19.72s-22,8.8-22,19.6S331.29,99.4,343.15,99.48Z"/><path class="cls-1" d="M377.89,101.38l2.42-4.11c5.68.79,10.89,1.76,16.14,2.14a12.24,12.24,0,0,0,6.28-1.64c5.44-2.94,5.66-9.45.26-12.48-3.81-2.14-8.13-3.37-12.18-5.1-4.89-2.08-9.59-4.57-10.66-10.42s2.48-11.43,9.18-13.71c7.87-2.67,15.79-2.5,23.69,1.89l-3.26,5.15c-5.62-2.43-11.17-4.2-16.73-1.82-2.26,1-4.86,3.57-5.21,5.77-.29,1.78,2.12,4.81,4.1,6,3.91,2.27,8.36,3.61,12.58,5.35,6.86,2.83,10.6,7.7,10.23,13.3-.39,6-4.63,10.5-11.77,12.53C394.5,106.57,384.9,105.58,377.89,101.38Z"/><path class="cls-1" d="M425.15,56.07h6.74v47.7h-6.74Z"/><path class="cls-1" d="M432.68,44.41c.69,3.49-1.26,5.14-4.33,5.11s-4.9-1.68-4.89-5,1.79-5.11,4.79-5.18S433.23,40.95,432.68,44.41Z"/><path class="cls-1" d="M81.81,163.61a81.81,81.81,0,1,1,81.81-81.81A81.9,81.9,0,0,1,81.81,163.61Zm0-160.76a79,79,0,1,0,79,79A79,79,0,0,0,81.81,2.85Z"/></g></g></svg>